<?xml version="1.0" standalone="no"?>
<!DOCTYPE svg PUBLIC "-//W3C//DTD SVG 20010904//EN"
 "http://www.w3.org/TR/2001/REC-SVG-20010904/DTD/svg10.dtd">
<svg version="1.0" xmlns="http://www.w3.org/2000/svg"
 width="1024.000000pt" height="693.000000pt" viewBox="0 0 1024.000000 693.000000"
 preserveAspectRatio="xMidYMid meet">
<metadata>
Created by potrace 1.16, written by Peter Selinger 2001-2019
</metadata>
<g transform="translate(0.000000,693.000000) scale(0.100000,-0.100000)"
fill="#000000" stroke="none">
<path d="M0 6890 c0 -28 4 -40 15 -40 33 0 276 -221 389 -355 81 -96 96 -107
96 -69 0 15 7 32 15 38 13 10 11 20 -18 81 -19 39 -51 122 -72 185 -21 63 -46
134 -56 158 l-18 42 -176 0 -175 0 0 -40z"/>
<path d="M1565 6883 c-26 -35 -34 -55 -30 -73 4 -18 3 -21 -4 -11 -10 15 -17
2 -66 -114 -20 -45 -93 -160 -122 -190 -11 -11 -28 -33 -37 -48 -10 -15 -27
-27 -38 -27 -10 0 -17 -4 -14 -9 4 -5 -3 -7 -14 -4 -11 3 -20 1 -21 -3 0 -5
-2 -16 -3 -24 -1 -8 6 -24 17 -34 20 -19 20 -19 14 3 -4 18 -3 20 9 10 12 -10
13 -9 8 6 -6 16 -5 16 22 2 16 -8 34 -13 39 -11 6 2 18 -8 28 -21 13 -18 14
-25 5 -25 -9 -1 -9 -4 3 -13 29 -22 31 -48 7 -76 l-23 -26 25 20 c56 44 89 79
83 88 -3 6 -2 7 4 4 10 -6 106 90 110 109 1 5 5 17 8 27 4 10 3 17 -4 17 -6 0
-11 -4 -11 -10 0 -5 -6 -10 -12 -10 -7 1 -3 9 10 20 12 10 21 22 20 27 -2 4 2
9 7 10 6 1 9 -6 8 -15 -1 -10 0 -11 3 -4 3 6 10 10 15 6 18 -11 9 9 -13 28
-12 11 -30 17 -40 15 -24 -7 -23 10 2 23 11 6 17 16 14 25 -4 8 -10 13 -14 10
-5 -3 -3 5 3 18 10 21 12 22 27 8 12 -12 12 -17 3 -19 -9 -3 -5 -16 14 -43 30
-42 46 -45 51 -10 2 15 0 21 -7 17 -7 -4 -8 -1 -5 8 7 19 24 21 24 4 0 -7 7
-4 16 7 8 11 21 28 30 38 8 10 31 40 50 67 29 41 33 52 25 73 -6 15 -23 33
-39 41 -31 16 -46 41 -36 58 3 5 12 1 20 -9 14 -17 14 -16 12 7 -1 14 1 30 5
37 4 6 3 14 -3 18 -6 4 -8 11 -5 16 4 5 -25 9 -69 9 l-76 0 -35 -47z"/>
<path d="M3090 6913 c0 -14 -2 -15 -9 -4 -5 7 -11 9 -14 4 -3 -5 -2 -15 4 -23
14 -24 11 -30 -17 -30 -17 0 -38 -12 -58 -33 -17 -18 -47 -39 -66 -46 -41 -16
-101 -76 -94 -95 3 -9 -5 -13 -23 -14 -21 0 -34 7 -48 27 l-18 28 -58 -28
c-32 -16 -60 -33 -63 -38 -7 -10 46 -58 81 -74 14 -6 28 -25 34 -48 11 -35 10
-39 -27 -83 -21 -25 -42 -46 -46 -46 -5 0 -43 -26 -86 -59 -42 -32 -96 -70
-119 -84 -43 -27 -63 -53 -63 -82 0 -14 2 -14 25 1 14 9 25 23 25 30 0 8 3 14
8 15 27 3 46 9 60 22 10 8 34 22 55 32 20 9 37 21 37 26 0 5 7 9 15 9 9 0 18
7 21 15 4 8 12 15 19 15 7 0 15 10 18 21 4 16 11 20 28 16 22 -6 99 22 99 35
0 5 6 8 14 8 7 0 19 7 26 15 21 25 36 17 69 -33 17 -27 46 -64 65 -83 20 -21
40 -56 51 -91 10 -32 24 -63 31 -69 8 -6 14 -15 14 -19 0 -3 -39 -47 -87 -96
-61 -63 -119 -109 -188 -152 -55 -35 -125 -82 -155 -106 -30 -24 -71 -52 -90
-62 -109 -57 -233 -149 -355 -263 -53 -49 -112 -94 -142 -108 -29 -13 -55 -33
-58 -43 -4 -11 -15 -20 -27 -20 -11 0 -44 -24 -74 -55 l-54 -54 -22 22 c-13
12 -32 29 -43 37 -12 8 -31 29 -43 47 -15 21 -28 30 -41 26 -13 -3 -30 11 -63
55 -37 48 -47 69 -53 118 -4 32 -13 66 -21 75 -15 16 -17 13 71 83 17 13 69
45 117 71 49 26 91 52 95 57 4 7 1 8 -8 4 -8 -4 3 8 24 28 21 19 58 44 81 54
23 11 48 28 56 37 8 9 37 32 66 50 29 18 61 42 73 52 12 10 60 39 109 65 94
50 114 74 61 76 -25 1 -43 12 -76 46 -23 25 -43 52 -43 61 0 8 -4 15 -10 15
-5 0 -10 9 -10 21 0 12 -7 36 -16 54 l-15 33 -45 -30 c-28 -19 -43 -36 -40
-44 3 -8 2 -13 -2 -11 -4 1 -7 -2 -7 -8 0 -5 3 -9 7 -8 4 2 16 -11 28 -27 17
-24 26 -29 48 -24 l27 6 -25 -21 -25 -21 24 0 c16 0 21 -4 18 -14 -3 -8 1 -20
9 -26 29 -25 16 -54 -41 -92 -36 -25 -51 -31 -43 -18 21 34 1 33 -47 -1 -33
-24 -48 -30 -54 -21 -5 8 -25 -4 -63 -38 -57 -50 -82 -63 -71 -35 3 9 8 13 11
10 7 -6 92 75 92 87 0 17 -46 -16 -128 -90 -68 -61 -81 -77 -68 -84 18 -10 21
-28 5 -28 -5 0 -7 5 -4 10 4 6 -3 9 -15 7 -18 -3 -90 -79 -90 -95 0 -2 18 12
40 32 22 20 43 36 46 36 8 0 0 -10 -59 -72 -39 -42 -44 -45 -39 -22 4 24 3 25
-16 13 -11 -7 -18 -18 -15 -24 2 -7 -3 -15 -13 -19 -14 -5 -15 -4 -4 9 9 11 9
15 1 15 -7 0 -9 5 -6 10 3 6 1 10 -4 10 -6 0 -16 -9 -23 -20 -7 -11 -18 -20
-24 -20 -20 0 -60 -55 -63 -88 -4 -49 25 -55 61 -12 16 20 24 37 18 40 -12 7
-3 40 10 40 5 0 12 -5 16 -11 3 -6 15 -8 26 -6 13 4 0 -15 -36 -53 -31 -32
-56 -63 -56 -69 0 -22 -17 -10 -48 33 -22 31 -28 46 -20 49 10 4 10 6 0 6 -20
1 -72 -38 -72 -55 0 -28 -15 -13 -39 39 -14 28 -24 64 -23 78 1 15 -5 40 -13
55 -8 16 -15 35 -15 42 0 6 -8 12 -19 12 -22 0 -44 23 -33 36 4 4 -1 2 -11 -6
-17 -12 -20 -12 -29 3 -5 10 -13 15 -18 12 -5 -3 -7 3 -5 15 2 11 -1 19 -8 17
-7 -1 -13 5 -13 13 -1 8 -2 21 -3 29 -1 11 -4 11 -17 1 -8 -8 -14 -9 -13 -4 6
35 -2 54 -25 54 -19 0 -27 8 -37 38 -6 20 -20 46 -31 57 -10 11 -25 29 -34 40
-8 11 -12 13 -8 5 4 -8 -11 5 -34 29 -22 24 -48 63 -57 85 -36 90 -60 132 -91
163 -18 17 -35 41 -39 52 -3 12 -11 21 -17 21 -15 0 -98 91 -98 107 0 7 -4 13
-10 13 -5 0 -10 6 -10 13 0 7 -9 23 -19 34 -11 12 -17 24 -14 27 4 3 -1 6 -10
6 -17 0 -40 33 -30 43 3 4 -2 9 -11 13 -9 4 -24 21 -33 38 -9 17 -30 49 -47
70 -17 22 -36 51 -43 65 -10 22 -11 23 -12 6 -1 -22 95 -264 152 -385 20 -41
33 -78 31 -82 -3 -4 1 -5 9 -3 7 3 22 -3 32 -15 21 -23 14 -27 -9 -4 -15 14
-16 13 -16 -6 0 -12 -5 -18 -10 -15 -6 3 -10 0 -10 -7 0 -10 -2 -10 -9 1 -6 9
-11 10 -15 3 -4 -6 2 -16 14 -22 19 -10 69 -102 71 -131 1 -8 5 -3 9 11 l8 25
1 -27 c1 -14 7 -29 14 -31 9 -4 8 -8 -3 -16 -13 -9 -12 -12 5 -24 21 -16 45
-12 45 7 0 6 5 3 11 -6 5 -10 15 -18 22 -18 19 -1 64 -43 72 -68 3 -12 25 -34
47 -48 22 -14 59 -43 82 -64 22 -20 60 -47 84 -59 23 -12 40 -26 37 -31 -3 -5
5 -16 17 -24 12 -9 19 -16 15 -16 -4 0 7 -25 23 -55 41 -75 40 -89 -6 -82 -20
3 -50 17 -68 30 l-32 25 -36 -39 c-39 -42 -35 -61 7 -33 14 9 28 14 32 11 3
-4 -7 -11 -23 -17 l-29 -12 25 -13 c14 -8 21 -14 17 -15 -5 0 -17 4 -27 10
-12 6 -29 6 -50 -1 -24 -9 -34 -9 -43 1 -9 10 -9 11 1 6 13 -8 57 2 48 11 -12
12 -66 12 -68 0 -4 -35 -2 -43 12 -55 8 -8 9 -11 3 -7 -17 8 -16 3 4 -40 12
-25 19 -32 26 -23 6 10 7 9 4 -2 -2 -8 3 -26 12 -40 30 -45 43 -78 38 -92 -3
-8 -6 -5 -6 7 -1 17 -3 17 -11 5 -8 -13 -10 -13 -10 -1 0 8 -10 25 -22 38 -16
18 -19 26 -10 32 8 5 2 22 -22 59 -19 28 -37 61 -41 72 -6 20 -25 28 -25 10 0
-5 5 -10 11 -10 5 0 7 -5 3 -12 -5 -7 -11 -5 -21 7 -7 11 -13 15 -13 11 0 -4
16 -27 35 -50 19 -24 32 -46 28 -50 -8 -8 -53 34 -53 50 0 7 -5 16 -11 20 -7
4 -9 0 -5 -14 4 -11 2 -23 -3 -27 -7 -4 -8 1 -4 11 4 11 3 15 -5 10 -14 -8
-25 10 -15 27 19 31 9 49 -15 25 -9 -9 -15 -9 -25 1 -10 11 -9 12 1 6 8 -4 20
0 31 11 15 16 15 24 5 54 -6 19 -20 39 -30 44 -19 9 -92 124 -118 187 -11 26
-25 40 -55 51 -24 10 -51 32 -71 59 -18 24 -36 43 -42 41 -6 -1 -15 1 -22 6
-6 4 -27 5 -46 2 -25 -5 -30 -9 -19 -14 22 -10 13 -61 -14 -73 -19 -9 -16 -11
21 -17 72 -11 119 -35 125 -62 2 -13 0 -27 -4 -30 -5 -3 -9 -1 -9 5 0 23 -89
51 -196 62 -60 5 -125 14 -144 20 -19 5 -38 9 -42 9 -11 0 -10 -38 2 -45 5 -3
6 -13 3 -23 -3 -9 -3 -14 2 -10 4 4 16 -2 26 -14 23 -26 24 -29 2 -21 -17 7
-17 6 -1 -10 10 -11 15 -25 11 -35 -6 -16 -6 -16 11 1 22 21 27 22 19 0 -4
-10 -2 -14 5 -9 6 3 13 2 16 -3 4 -5 2 -12 -3 -15 -5 -4 -12 -2 -15 3 -8 12
-46 2 -46 -13 0 -6 -5 -4 -11 4 -9 13 -10 12 -5 -2 3 -10 0 -20 -6 -24 -13 -8
-28 14 -21 32 3 9 -4 11 -26 8 -19 -3 -31 -1 -31 6 0 6 -4 9 -9 5 -5 -3 -12 3
-14 12 -3 10 -5 -199 -6 -464 0 -266 3 -483 7 -483 5 0 34 9 65 19 130 45 213
56 417 56 209 -1 311 -16 480 -72 108 -35 286 -124 348 -173 28 -23 52 -39 52
-36 0 4 12 -8 28 -24 15 -17 34 -32 43 -33 16 -3 118 -87 105 -87 -3 0 -28 19
-54 42 -36 32 -32 26 18 -27 36 -38 70 -74 76 -79 7 -6 39 -49 73 -96 33 -47
74 -103 91 -126 16 -23 30 -44 30 -48 0 -3 18 -43 39 -89 22 -45 49 -111 61
-147 12 -36 24 -67 27 -70 19 -17 -56 189 -104 283 -28 56 -72 125 -143 222
-38 52 -42 60 -15 30 53 -58 145 -198 187 -285 104 -213 149 -409 146 -641
l-1 -154 -8 179 c-4 98 -10 181 -13 184 -3 3 -3 -69 0 -159 7 -189 -12 -333
-65 -495 -37 -115 -187 -418 -202 -409 -4 3 -24 -17 -44 -45 -39 -53 -136
-143 -250 -230 -74 -56 -99 -78 -77 -66 6 4 12 5 12 1 0 -3 -20 -14 -44 -25
-24 -10 -47 -23 -50 -29 -4 -6 -14 -11 -23 -11 -9 0 -24 -6 -32 -13 -9 -7 -61
-30 -116 -51 -55 -21 -116 -45 -135 -52 -19 -8 -53 -17 -75 -19 -22 -3 -67 -9
-100 -15 -94 -17 -339 -24 -390 -11 -24 6 -74 13 -110 16 -36 3 -80 13 -98 22
-18 9 -38 16 -44 15 -7 -2 -13 2 -13 8 0 6 -4 9 -10 5 -5 -3 -26 1 -46 10 -20
8 -38 15 -40 15 -2 0 -4 -43 -4 -96 0 -73 3 -95 13 -91 171 78 188 82 306 80
129 -2 161 -15 79 -32 -66 -15 -276 -85 -346 -117 l-52 -24 0 -449 1 -449 24
-6 c18 -5 25 -13 25 -30 0 -27 -22 -40 -39 -23 -8 8 -11 7 -11 -6 0 -9 5 -17
10 -17 6 0 10 -5 10 -11 0 -5 -5 -7 -11 -4 -7 5 -9 -7 -7 -36 2 -30 8 -43 20
-45 9 -1 19 5 22 13 4 9 13 13 22 9 9 -4 23 -1 30 5 11 9 14 6 14 -15 0 -22
-4 -26 -32 -27 l-33 -1 33 -10 c20 -7 32 -17 32 -28 0 -11 11 -20 30 -24 18
-3 30 -12 30 -21 0 -8 7 -15 16 -15 12 0 15 6 11 21 -4 17 -3 19 6 10 14 -14
57 -15 57 -1 0 6 5 10 11 10 8 0 8 -4 -1 -15 -10 -12 -8 -17 13 -26 20 -9 34
-9 64 3 21 9 44 13 51 11 6 -3 12 2 12 10 0 18 18 26 42 19 18 -4 40 -54 29
-68 -3 -5 -42 -9 -86 -9 -59 0 -87 -5 -105 -18 -13 -9 -32 -17 -41 -17 -9 0
-36 -25 -59 -55 -24 -31 -56 -65 -71 -76 -16 -11 -28 -25 -26 -32 1 -6 -8 -13
-20 -15 -13 -2 -23 -8 -23 -13 0 -5 -11 -15 -25 -21 -34 -15 -31 -39 6 -61 30
-17 32 -16 57 4 15 11 35 33 44 47 10 15 18 23 18 18 0 -17 38 25 55 60 9 19
20 34 26 34 6 0 7 -5 3 -11 -5 -9 4 -10 31 -5 29 6 35 4 29 -6 -6 -10 -4 -10
9 1 13 10 17 10 17 1 0 -9 9 -11 30 -6 38 7 38 -2 0 -49 -16 -20 -28 -41 -25
-45 8 -13 -43 -60 -64 -60 -11 0 -22 -4 -25 -9 -9 -13 26 -23 38 -11 13 13 43
13 51 0 3 -5 8 -19 10 -31 4 -17 0 -20 -18 -16 -12 3 -31 -1 -41 -8 -18 -14
-16 -16 35 -39 l54 -24 18 42 c11 22 20 48 21 55 2 8 8 17 15 19 15 5 51 -26
51 -45 0 -7 9 -13 20 -13 16 0 20 -7 20 -30 0 -35 22 -72 65 -112 36 -33 58
-36 53 -8 -2 12 -7 19 -11 18 -8 -3 -36 39 -37 55 0 4 6 7 13 5 6 -1 22 2 35
6 22 7 22 8 5 36 -9 16 -20 27 -25 24 -5 -3 -7 0 -6 8 2 7 10 16 18 20 22 10
75 9 85 -1 21 -20 122 -10 109 10 -3 5 11 9 30 9 29 0 36 -4 36 -20 0 -11 5
-20 11 -20 5 0 8 -4 5 -9 -3 -4 15 -11 41 -15 59 -8 78 -8 70 1 -4 3 -2 12 4
20 13 15 39 1 39 -21 0 -6 9 -17 20 -24 17 -10 20 -10 20 3 0 8 8 16 18 17 32
2 37 4 51 12 9 6 9 2 -3 -15 -23 -36 -8 -53 32 -36 18 7 29 16 25 20 -10 11
60 -4 74 -16 7 -5 11 -13 8 -17 -3 -5 4 -15 16 -24 20 -13 19 -14 -20 -9 -34
5 -41 3 -41 -11 0 -9 6 -19 14 -22 11 -4 8 -11 -10 -31 -27 -29 -31 -45 -10
-37 16 6 28 -19 19 -42 -4 -11 -13 -14 -30 -9 -16 4 -22 2 -18 -5 8 -14 102
-13 111 1 4 8 9 7 15 -2 4 -7 11 -10 15 -6 4 3 2 12 -3 19 -14 18 8 60 23 44
5 -6 10 -15 11 -21 0 -5 10 -14 22 -20 11 -5 21 -13 21 -17 0 -5 7 -8 17 -8 9
0 14 3 10 6 -3 3 4 17 17 31 18 19 34 25 73 26 38 2 49 -1 46 -10 -3 -8 3 -13
17 -13 12 0 31 -10 42 -23 11 -12 17 -16 13 -9 -7 14 11 17 20 2 11 -17 44
-11 56 11 6 12 7 19 1 15 -12 -7 -34 18 -24 29 4 5 2 5 -4 2 -7 -4 -25 6 -42
21 -26 24 -32 26 -49 15 -17 -11 -20 -11 -20 2 0 8 9 15 19 15 10 0 18 6 18
13 0 8 4 7 10 -3 5 -8 10 -10 10 -5 0 7 3 7 8 0 9 -12 48 -35 61 -35 5 0 17 7
25 16 12 11 13 20 6 34 -12 23 4 37 24 21 13 -11 14 -36 1 -110 -8 -42 -7 -43
14 -32 25 14 28 26 5 17 -13 -5 -14 -3 -6 7 6 7 12 25 14 39 2 15 16 36 31 48
34 27 34 38 2 46 -14 3 -25 10 -25 16 0 5 -6 6 -12 2 -14 -8 9 24 27 39 6 5
-2 6 -17 3 -14 -3 -28 -2 -30 4 -2 5 -17 2 -36 -7 -33 -16 -50 -13 -37 6 3 6
17 11 30 11 13 0 27 5 31 11 10 16 -17 29 -37 18 -13 -7 -21 -4 -31 10 -13 19
-18 21 -42 21 -8 0 -18 9 -21 20 -7 22 -18 18 -65 -20 -15 -12 -18 -18 -8 -14
12 4 18 1 18 -10 0 -9 -8 -16 -20 -16 -11 0 -20 -6 -20 -14 0 -12 6 -12 35 -3
24 7 31 13 23 19 -10 6 -9 8 4 8 9 0 19 -4 22 -9 3 -5 15 -7 26 -4 27 7 51 -3
44 -20 -4 -11 -14 -13 -39 -7 -21 5 -38 3 -44 -3 -8 -8 -11 -8 -11 0 0 15 -70
-7 -77 -24 -9 -23 -19 -14 -21 18 -1 17 2 28 7 25 8 -5 21 15 21 33 0 4 -25 3
-55 -2 -30 -6 -55 -14 -55 -19 0 -4 5 -8 10 -8 15 0 12 -22 -6 -45 -15 -20
-15 -20 -34 3 -11 13 -21 18 -25 12 -11 -17 -25 -11 -25 11 0 11 -4 18 -9 15
-17 -11 1 89 21 118 12 16 17 27 12 24 -5 -2 -21 -10 -36 -18 -19 -9 -28 -21
-28 -37 0 -25 -10 -29 -28 -11 -9 9 -15 9 -24 0 -8 -8 -9 -12 -1 -12 6 0 14
-13 18 -30 4 -16 14 -34 23 -40 15 -8 14 -9 -5 -10 -15 0 -31 12 -45 35 -13
19 -27 34 -33 34 -24 -3 -36 2 -30 11 3 6 -1 7 -9 4 -9 -3 -16 -1 -16 5 0 6
-7 11 -15 11 -8 0 -15 5 -15 11 0 5 -4 8 -9 4 -5 -3 -13 -1 -16 5 -4 6 -14 10
-23 9 -37 -3 -44 1 -40 25 4 19 1 22 -14 18 -10 -2 -25 1 -32 7 -25 21 -7 81
40 137 24 28 41 54 37 57 -3 4 -2 7 3 6 5 0 20 -14 33 -30 23 -30 23 -32 7
-66 -9 -19 -12 -32 -6 -28 5 3 10 1 10 -4 0 -6 5 -11 11 -11 8 0 7 6 -2 16
-13 15 -11 17 19 12 25 -3 32 -1 28 9 -3 7 -1 13 4 13 6 0 10 9 10 19 0 15 7
19 35 18 33 -1 34 -2 18 -20 -15 -16 -15 -19 -3 -27 11 -7 17 -3 22 18 7 25
12 28 49 26 30 -1 38 1 29 10 -6 6 -25 11 -43 12 -76 2 -87 5 -107 26 l-20 22
36 12 c38 13 56 32 75 79 7 17 14 31 15 33 1 2 15 -4 31 -13 l28 -17 -28 26
c-17 16 -27 33 -23 42 4 10 0 14 -11 12 -11 -2 -19 5 -21 16 -8 39 -95 87
-116 66 -7 -7 -6 -10 2 -10 7 0 12 -7 12 -15 0 -8 4 -15 9 -15 5 0 7 -9 4 -20
-7 -26 9 -26 32 0 10 11 22 17 26 14 14 -8 10 -24 -6 -24 -8 0 -15 -4 -15 -10
0 -5 4 -10 8 -10 13 0 41 -65 34 -77 -14 -23 -62 -19 -62 4 0 9 -8 25 -17 35
-15 17 -15 21 -3 29 12 8 10 10 -7 6 -14 -3 -23 0 -23 6 0 8 -3 7 -9 -2 -7
-10 -13 -11 -32 -1 -22 11 -21 10 4 -13 32 -29 35 -53 7 -62 -11 -3 -20 -13
-20 -21 0 -8 -7 -17 -15 -20 -8 -4 -12 -11 -8 -17 4 -6 0 -8 -10 -4 -10 4 -16
2 -14 -6 1 -7 -4 -11 -10 -10 -7 2 -13 -2 -13 -7 0 -13 27 -13 35 0 3 6 11 10
18 10 16 0 -24 -27 -48 -32 -11 -2 -19 -10 -18 -16 2 -7 -4 -12 -12 -12 -20 0
-19 17 3 29 9 6 12 11 5 11 -6 0 -16 14 -22 30 -5 17 -17 32 -26 35 -8 3 -21
7 -29 9 -9 3 -12 14 -9 30 3 16 10 23 19 19 18 -7 19 26 1 52 -23 34 -29 82
-10 89 17 7 36 -12 27 -26 -8 -12 11 -9 24 4 9 9 7 14 -6 24 -14 11 -8 13 43
12 33 0 73 5 89 11 l30 12 -33 20 c-39 24 -72 22 -86 -6 -8 -16 -20 -20 -57
-20 -38 0 -48 -4 -48 -16 0 -9 -7 -22 -16 -30 -13 -10 -17 -10 -24 1 -6 9 -5
17 2 21 13 8 3 39 -12 39 -5 0 -10 -8 -11 -17 0 -12 -2 -13 -6 -5 -5 14 25 54
36 47 4 -2 12 5 18 15 10 15 9 17 -8 13 -11 -3 -22 -9 -25 -14 -9 -15 -20 -10
-21 9 -1 9 -4 27 -8 39 -5 16 -2 22 12 25 14 4 12 6 -9 12 -16 5 -28 14 -28
21 0 13 -16 15 -35 4 -5 -4 -22 -9 -37 -13 -34 -8 -35 -21 -4 -49 23 -20 23
-22 6 -46 -9 -15 -33 -52 -54 -84 -20 -32 -45 -61 -54 -64 -9 -4 -20 -11 -24
-17 -4 -7 -39 -11 -90 -10 -95 2 -122 6 -161 22 -15 7 -48 13 -72 14 -44 3
-44 3 -41 38 2 19 4 43 5 52 1 19 79 98 96 98 6 0 11 12 10 27 0 14 6 27 13
29 7 1 8 0 2 -3 -6 -3 -4 -11 6 -20 13 -14 13 -17 -1 -32 -20 -23 -19 -42 1
-34 8 3 13 12 10 19 -3 9 2 14 14 14 14 0 18 -5 13 -17 -5 -15 -3 -16 7 -6 11
10 11 15 0 28 -10 13 -9 15 7 15 11 0 25 11 31 25 14 31 49 34 54 5 3 -21 3
-21 16 1 8 11 10 19 5 16 -4 -3 -17 2 -28 10 -20 15 -20 15 2 10 12 -2 34 4
50 14 30 20 73 25 73 9 0 -5 -17 -13 -38 -16 -22 -3 -39 -12 -39 -19 0 -8 8
-11 21 -8 12 2 55 8 96 13 41 5 86 12 99 16 15 4 26 2 31 -7 7 -10 12 -6 20
16 8 21 8 31 0 33 -6 2 -8 17 -4 37 6 31 5 32 -22 27 -24 -4 -26 -2 -22 16 8
28 -19 53 -33 31 -6 -10 -9 -10 -9 -1 0 6 -10 12 -23 12 -13 0 -28 5 -35 12
-9 9 -12 9 -12 -2 0 -8 -3 -26 -7 -39 -4 -17 -3 -22 6 -17 6 4 9 11 6 16 -10
17 14 20 29 4 9 -8 16 -13 16 -9 0 3 9 1 20 -5 29 -15 25 -30 -10 -37 -17 -3
-33 -10 -36 -14 -3 -5 -10 -9 -15 -9 -6 0 -7 5 -4 10 3 6 1 10 -4 10 -6 0 -11
-4 -11 -10 0 -5 -9 -10 -19 -10 -11 0 -22 -4 -25 -9 -3 -5 -15 -7 -26 -4 -12
3 -22 -1 -26 -11 -3 -9 -10 -16 -16 -16 -5 0 -7 4 -3 9 3 5 -3 16 -13 23 -10
7 -21 21 -25 32 -6 15 -10 16 -22 6 -8 -7 -15 -19 -15 -26 0 -10 -7 -13 -25
-8 -21 5 -25 3 -25 -15 0 -12 -6 -21 -15 -21 -8 0 -15 -4 -15 -9 0 -5 -14 -14
-31 -21 -26 -11 -35 -11 -57 2 -24 14 -29 14 -41 1 -7 -8 -19 -12 -26 -9 -8 3
-15 1 -17 -3 -2 -4 -14 -4 -28 0 -18 5 -20 7 -6 8 15 1 16 4 7 15 -19 22 2 52
52 74 31 14 46 16 56 8 12 -9 13 -6 9 17 -6 30 20 57 54 57 10 0 18 6 18 14 0
24 51 43 74 28 18 -11 39 -15 78 -14 25 1 41 -4 50 -16 7 -10 19 -22 27 -27
11 -6 13 -4 8 9 -5 13 -3 17 7 13 7 -3 19 0 25 6 14 14 15 47 1 47 -5 0 -10 9
-10 20 0 10 -7 23 -16 28 -15 8 -15 10 0 15 9 4 15 2 13 -5 -1 -6 11 -11 28
-11 22 0 30 4 29 16 -1 12 6 17 25 18 23 0 24 1 6 9 -32 14 -94 11 -119 -5
-22 -15 -86 -11 -86 5 0 16 141 33 232 28 70 -4 102 -2 131 9 24 10 52 13 80
9 23 -4 46 -6 51 -5 5 0 12 -4 16 -11 4 -6 37 -13 75 -16 74 -5 119 -23 135
-54 14 -25 47 -25 85 0 33 22 60 28 31 7 -16 -12 -16 -13 3 -13 12 0 21 4 21
10 0 5 31 6 78 2 42 -4 83 -8 90 -8 6 -1 12 -5 12 -10 0 -4 3 -7 8 -6 6 2 39
-4 92 -17 28 -6 99 -49 159 -97 40 -32 78 -55 85 -51 6 3 8 3 4 -2 -9 -10 36
-46 53 -43 7 2 13 -2 14 -7 0 -13 45 -62 45 -50 0 5 6 2 13 -6 21 -26 91 -76
117 -84 l25 -7 -25 27 c-27 30 -19 27 48 -19 23 -16 53 -28 66 -28 18 -1 23
-5 19 -16 -4 -10 -1 -13 8 -10 21 7 49 -35 49 -73 0 -24 3 -30 11 -22 15 15
39 -6 31 -26 -4 -10 -1 -13 11 -8 9 3 16 3 16 -1 -3 -21 2 -43 9 -38 5 3 9 -1
9 -9 0 -8 -5 -11 -11 -8 -6 4 -2 -4 9 -16 l19 -22 -29 7 c-17 4 -38 8 -48 8
-10 0 -15 6 -13 13 3 7 1 13 -4 13 -6 0 -10 -6 -10 -12 0 -16 15 -40 24 -39
18 3 27 0 23 -6 -8 -13 17 -29 43 -29 14 1 26 -3 27 -8 0 -5 8 -13 16 -17 12
-7 21 -32 31 -89 1 -3 5 -11 9 -18 5 -7 2 -14 -7 -18 -9 -3 -16 -13 -16 -21 0
-8 -5 -11 -10 -8 -6 4 -8 12 -4 18 3 7 -1 4 -9 -6 -9 -10 -21 -15 -31 -11 -11
4 -16 0 -16 -14 0 -12 -4 -23 -10 -27 -13 -8 -1 -35 16 -35 17 0 18 12 2 28
-9 9 -8 12 5 12 16 0 21 -11 18 -35 -1 -5 5 -2 13 8 8 11 17 14 20 8 4 -6 13
-8 21 -5 9 4 18 -3 24 -19 5 -13 16 -27 24 -30 10 -4 13 -13 10 -28 -4 -15 -2
-20 5 -15 7 4 10 -1 7 -14 -2 -11 3 -24 13 -30 11 -6 12 -10 4 -10 -8 0 -10
-5 -6 -12 4 -7 9 -21 11 -33 1 -11 4 -33 7 -50 2 -18 -2 -37 -12 -48 -9 -10
-15 -30 -14 -45 2 -31 -34 -96 -48 -87 -15 9 -12 -3 6 -24 16 -18 35 -19 330
-20 l313 -2 -4 53 c-11 136 -18 190 -36 281 -32 167 -72 301 -127 434 -32 75
-156 318 -175 342 -6 7 -16 21 -22 31 -28 47 -76 112 -130 176 -33 38 -69 81
-80 95 -12 13 -52 52 -90 86 -308 274 -482 381 -818 503 -195 71 -453 119
-653 123 -92 2 -117 9 -71 22 12 4 50 18 84 32 62 25 64 26 170 14 415 -46
822 -212 1153 -470 123 -95 277 -248 372 -367 45 -57 85 -101 90 -98 5 3 6 10
3 15 -4 5 -1 9 5 9 6 0 8 -10 4 -25 -5 -19 5 -41 39 -93 84 -128 257 -503 257
-557 0 -8 4 -15 10 -15 5 0 7 8 4 18 -5 14 -4 15 5 2 6 -8 11 -24 11 -35 0
-17 -2 -18 -11 -5 -9 12 -9 11 -4 -5 17 -45 65 -297 77 -399 l13 -110 115 103
c95 86 475 394 761 619 64 50 67 51 83 33 16 -18 15 -20 -16 -46 -18 -15 -159
-148 -313 -295 -154 -147 -329 -312 -389 -366 l-109 -99 39 -3 c35 -3 43 1 78
40 158 174 501 528 511 528 28 0 26 -22 -7 -58 -18 -21 -65 -78 -105 -128 -77
-96 -280 -351 -296 -372 -8 -10 37 -12 220 -11 l229 0 25 32 c28 36 41 59 93
168 49 104 93 148 218 219 124 71 188 94 297 111 88 13 130 7 226 -35 45 -20
64 -37 107 -96 57 -79 59 -79 73 13 7 43 5 46 -40 93 -38 39 -57 74 -97 171
-46 113 -52 149 -26 141 6 -2 18 -24 27 -48 24 -66 86 -110 154 -110 36 0 47
3 37 10 -12 8 -12 11 3 28 9 10 17 24 17 30 0 6 12 19 26 28 25 17 76 20 239
13 22 -1 52 2 66 6 20 5 34 0 67 -28 38 -32 96 -56 108 -45 2 3 -2 22 -9 44
-21 60 -29 131 -14 136 7 3 51 -1 100 -8 87 -13 87 -13 125 12 32 22 44 25 89
19 29 -3 74 -8 101 -10 130 -10 304 -41 357 -65 98 -43 142 -69 184 -109 50
-47 61 -72 101 -229 l11 -44 57 54 c144 138 162 108 34 -58 l-70 -92 -7 -112
c-6 -86 -11 -113 -23 -117 -8 -4 -20 1 -26 10 -37 53 -37 53 -32 35 3 -9 -2
-19 -12 -23 -16 -6 -16 -7 1 -16 9 -6 17 -14 17 -19 0 -16 -32 -41 -46 -36
-21 8 -4 -26 25 -51 14 -12 38 -22 54 -23 22 0 27 4 27 23 0 13 -3 27 -7 31
-4 3 -8 16 -10 29 -4 21 -3 21 11 2 15 -19 15 -19 17 10 0 22 5 13 16 -32 l16
-63 206 0 206 0 1 113 c4 312 107 619 289 858 59 77 185 209 240 252 22 17 0
-7 -48 -52 -119 -113 -233 -268 -306 -415 -107 -217 -149 -378 -158 -608 -5
-130 -4 -148 10 -148 8 0 18 6 20 13 4 10 6 10 6 0 1 -7 5 -13 10 -13 6 0 9
62 9 148 -2 209 27 333 124 532 59 121 105 193 119 185 8 -5 -24 -82 -40 -95
-3 -3 -7 -16 -9 -30 -1 -13 -7 -27 -13 -30 -5 -4 -7 -14 -3 -24 4 -11 0 -23
-12 -32 -11 -9 -14 -13 -8 -10 7 3 14 -3 17 -13 3 -14 1 -18 -9 -14 -17 6 -17
7 -5 -35 11 -37 -4 -85 -23 -76 -6 3 -1 -3 12 -12 21 -16 30 -44 14 -44 -4 0
-14 -16 -21 -35 -13 -36 -26 -45 -34 -22 -2 6 -3 2 -1 -10 2 -11 7 -28 10 -37
3 -9 1 -16 -6 -16 -6 0 -8 5 -4 13 5 7 1 6 -10 -3 -17 -13 -17 -14 1 -21 13
-6 14 -8 3 -8 -12 -1 -12 -3 -2 -10 9 -5 12 -24 8 -59 -3 -36 -1 -52 7 -52 7
0 6 -4 -3 -10 -8 -5 -11 -10 -6 -10 5 0 4 -6 -2 -12 -5 -8 -6 -22 -1 -33 11
-27 11 -35 0 -35 -5 0 -12 10 -14 23 -4 22 -4 22 -6 0 0 -12 6 -28 14 -37 8
-8 15 -21 15 -28 0 -10 -3 -9 -11 2 -8 12 -9 12 -7 -5 1 -11 0 -25 -4 -30 -4
-7 33 -11 110 -13 64 -1 113 1 107 5 -5 4 -18 21 -27 38 -10 17 -22 29 -28 27
-8 -2 -8 4 0 17 7 13 7 22 0 26 -17 11 -11 32 11 38 12 3 18 10 14 16 -3 6 -1
11 4 11 6 0 11 -6 11 -12 0 -8 5 -6 10 4 6 10 18 14 31 11 15 -4 22 0 26 16 3
11 11 21 19 21 7 0 11 6 8 13 -2 7 6 17 18 23 13 6 17 9 11 7 -7 -1 -13 2 -13
8 0 19 35 4 39 -16 4 -23 21 -37 37 -31 7 3 9 -5 6 -20 -2 -14 -1 -24 4 -23
20 3 25 -2 12 -16 -33 -37 -39 -46 -33 -56 4 -6 13 -8 19 -6 7 3 13 0 13 -6 0
-7 3 -19 5 -27 3 -8 3 -12 1 -7 -3 4 -9 7 -15 7 -7 0 -7 -4 1 -13 8 -10 7 -17
-1 -25 -9 -9 -9 -12 0 -12 7 0 12 5 12 10 0 6 5 10 10 10 6 0 10 -8 8 -17 -3
-16 11 -18 157 -21 l160 -3 -41 43 c-23 24 -50 57 -61 73 -31 47 -65 134 -57
147 4 6 7 41 7 76 0 36 6 81 13 101 11 32 10 38 -8 58 l-21 23 21 18 21 18
-31 28 c-38 33 -64 20 -32 -15 10 -13 13 -19 6 -15 -14 8 -33 -31 -25 -52 3
-6 0 -12 -7 -12 -7 0 -10 -7 -6 -16 4 -12 2 -15 -9 -10 -8 3 -35 2 -59 -3
l-44 -8 -10 36 c-6 20 -18 68 -28 108 -12 55 -21 74 -36 79 -25 8 -88 -4 -88
-16 0 -19 -16 -9 -33 20 -16 26 -16 33 -4 50 8 11 17 17 20 14 7 -7 25 10 50
48 20 32 77 51 114 37 34 -13 36 -12 30 10 -4 15 2 20 30 26 57 10 196 -64
161 -87 -9 -6 -8 -8 7 -6 12 2 21 -3 21 -12 1 -8 2 -20 3 -27 0 -6 20 -31 43
-55 23 -24 39 -38 35 -32 -3 6 -8 23 -11 39 -9 50 -104 148 -181 187 -33 17
-61 34 -63 39 -2 5 -10 9 -17 9 -21 0 -27 17 -13 40 14 22 54 29 43 8 -4 -7 0
-4 9 7 8 11 20 25 26 32 14 17 13 40 -2 46 -8 4 -7 6 4 6 9 1 18 -5 21 -11 3
-10 7 -10 20 0 13 11 15 10 10 -7 -3 -12 -9 -18 -14 -16 -9 6 -42 -39 -45 -62
-3 -20 23 3 31 27 3 10 15 20 26 23 15 4 19 2 15 -10 -3 -8 -6 -17 -6 -19 0
-3 -5 -2 -11 1 -6 4 -5 -2 3 -14 7 -12 18 -21 25 -21 6 0 13 -6 16 -12 2 -7 2
0 -1 16 -3 24 -1 28 12 23 15 -6 15 -4 1 23 -9 16 -15 32 -15 35 1 28 -1 35
-9 30 -6 -3 -9 3 -8 14 1 11 3 18 5 16 2 -2 16 7 31 21 27 23 34 55 16 71 -4
5 -5 2 -1 -5 4 -7 1 -15 -8 -18 -9 -3 -14 -10 -11 -14 3 -5 -3 -7 -12 -6 -10
2 -21 -1 -24 -7 -8 -11 -29 -1 -29 15 0 5 7 8 15 4 8 -3 21 4 29 15 9 14 15
16 18 8 3 -9 6 -8 11 4 8 21 -12 23 -38 3 -10 -7 -27 -11 -38 -8 -14 4 -18 1
-13 -7 4 -6 4 -11 -1 -10 -22 4 -33 -3 -33 -20 0 -11 -4 -23 -10 -26 -6 -3 -7
1 -4 9 9 24 -3 47 -21 39 -14 -5 -14 -8 -3 -15 10 -7 8 -8 -5 -4 -11 3 -20 0
-23 -9 -7 -18 4 -37 18 -29 6 4 5 9 -3 15 -7 4 -11 10 -8 13 2 3 11 1 18 -3
10 -7 11 -13 2 -30 -12 -22 -31 -29 -31 -11 0 6 -9 5 -24 -1 -16 -8 -23 -17
-19 -28 4 -13 3 -14 -5 -1 -6 8 -8 18 -6 22 3 4 1 8 -4 8 -6 0 -13 -7 -16 -16
-3 -8 -10 -13 -15 -9 -5 3 -13 -4 -16 -16 -4 -13 -2 -25 5 -29 17 -10 -3 -22
-24 -14 -13 5 -15 2 -9 -12 6 -17 5 -18 -12 -4 -11 9 -16 10 -11 3 4 -8 2 -13
-7 -13 -8 0 -20 -7 -27 -15 -15 -18 0 -20 20 -3 12 11 12 10 1 -4 -7 -10 -22
-18 -32 -18 -11 0 -24 -10 -30 -23 -6 -13 -18 -28 -28 -34 -15 -9 -18 -8 -17
6 1 18 7 26 78 101 27 27 54 48 60 46 7 -1 10 -1 6 1 -12 7 -10 23 2 23 6 0
49 29 95 65 89 68 109 77 98 47 -5 -14 -3 -13 10 3 9 11 11 22 6 24 -6 2 2 10
18 18 18 9 29 11 31 4 2 -6 11 -11 19 -11 12 0 13 3 4 13 -12 16 -5 27 17 27
9 0 12 -3 9 -7 -9 -9 33 -53 50 -53 8 0 21 -6 28 -14 12 -12 12 -15 -1 -20
-23 -9 -24 -8 -17 11 4 10 2 14 -5 9 -12 -7 -12 -46 0 -46 4 0 10 5 13 11 4 6
14 8 23 4 9 -3 13 -3 10 1 -4 4 -3 15 2 25 8 14 4 25 -20 49 -31 32 -56 40
-47 15 8 -19 -8 -28 -20 -12 -14 18 -10 42 7 42 8 0 20 5 25 11 6 7 20 15 33
19 17 5 22 2 22 -10 0 -12 -5 -15 -17 -11 -16 5 -16 4 -3 -6 8 -7 15 -22 15
-32 0 -11 6 -21 14 -24 8 -3 11 0 7 7 -4 6 -2 11 3 11 6 0 11 -5 11 -11 0 -5
5 -7 12 -3 6 4 8 3 5 -3 -4 -6 1 -17 10 -24 15 -12 16 -11 11 9 -4 12 -2 20 3
17 5 -3 22 -8 37 -10 25 -3 29 0 28 18 -1 12 3 26 9 30 6 5 4 7 -5 6 -27 -3
-41 1 -36 9 2 4 1 14 -5 22 -6 11 -9 2 -9 -27 0 -33 -3 -41 -15 -37 -8 4 -13
10 -10 14 9 14 -13 22 -33 11 -15 -8 -18 -6 -18 15 0 18 5 24 21 24 12 0 27
-6 34 -13 11 -10 11 -8 0 10 -7 12 -16 20 -20 17 -4 -2 -10 0 -13 5 -3 4 13
12 37 16 23 5 44 9 47 10 3 1 18 7 34 14 16 6 30 10 31 9 1 -2 7 -11 12 -22 9
-16 11 -17 16 -2 5 12 3 15 -6 10 -9 -5 -9 -4 0 6 19 21 28 3 14 -27 -11 -23
-10 -25 3 -13 9 7 16 19 16 27 0 10 6 12 20 8 15 -5 18 -3 14 9 -8 21 0 20 33
-1 15 -10 24 -12 20 -5 -5 6 -4 12 2 12 6 0 11 -7 11 -15 0 -8 7 -15 16 -15
13 0 14 3 5 14 -16 19 6 27 39 13 44 -18 67 -18 67 -2 0 8 -7 15 -14 15 -8 0
-11 -5 -7 -11 4 -8 0 -8 -15 0 -11 7 -21 13 -21 15 0 8 56 3 73 -6 15 -8 16
-12 5 -25 -12 -15 -11 -15 10 -4 12 7 20 17 16 23 -5 7 -2 8 7 3 29 -17 40
-28 31 -34 -6 -4 -6 -16 -1 -29 9 -23 29 -22 29 1 0 7 -4 6 -10 -3 -5 -8 -10
-10 -10 -5 0 6 10 21 21 35 11 14 18 19 14 13 -3 -7 -2 -13 4 -13 5 0 12 6 14
13 5 11 11 -18 8 -36 -1 -5 3 -6 9 -2 5 3 10 1 10 -5 0 -7 5 -6 14 2 8 7 11
18 8 23 -3 6 1 4 10 -2 8 -7 17 -11 20 -8 2 3 5 -2 5 -10 0 -8 -4 -12 -8 -9
-4 2 -10 0 -14 -6 -3 -5 0 -10 9 -10 8 0 17 -6 19 -12 4 -10 6 -9 6 1 1 10 6
8 19 -6 28 -33 58 -45 71 -29 6 7 10 15 8 17 -1 3 10 -7 24 -21 15 -15 29 -35
33 -46 3 -11 15 -20 25 -20 11 0 18 3 15 7 -2 4 2 10 8 13 7 3 0 3 -17 0 -21
-4 -26 -3 -16 4 7 5 10 15 6 22 -12 20 37 -12 64 -42 14 -16 33 -28 43 -28 9
0 24 -7 32 -16 9 -8 16 -13 16 -10 0 3 10 -4 22 -16 14 -14 21 -32 19 -46 -2
-21 0 -22 18 -12 12 6 19 15 16 21 -7 11 31 6 42 -6 5 -4 2 -5 -4 -1 -20 11
-15 -15 5 -31 13 -10 13 -13 2 -11 -8 2 -20 9 -26 17 -10 13 -12 2 -5 -52 1
-5 6 -5 11 -2 6 4 8 10 6 14 -3 4 5 8 17 8 17 2 18 0 7 -7 -19 -12 -7 -22 27
-25 50 -3 53 -5 53 -21 0 -13 -3 -14 -13 -5 -15 12 -27 5 -27 -16 0 -8 6 -13
13 -10 24 9 47 -13 43 -39 -4 -21 -3 -24 10 -14 11 10 14 9 14 -9 0 -14 6 -21
19 -21 11 0 23 -9 26 -20 4 -11 10 -18 14 -16 4 3 6 -8 5 -24 -1 -16 1 -29 5
-28 20 2 30 -4 25 -17 -4 -11 -2 -13 9 -9 8 3 18 1 22 -5 3 -6 0 -11 -7 -12
-7 0 1 -7 17 -14 17 -8 24 -14 18 -15 -7 0 -13 -7 -13 -16 0 -8 4 -13 9 -10
12 8 34 -21 26 -34 -3 -6 3 -10 16 -10 12 0 20 -3 16 -6 -3 -4 1 -13 9 -22 9
-8 13 -23 11 -33 -3 -11 -2 -19 2 -19 14 0 10 -51 -4 -56 -8 -4 -15 -11 -15
-16 0 -7 5 -6 13 1 8 6 16 8 20 5 7 -8 -3 -36 -17 -47 -8 -6 -7 -10 2 -14 17
-7 16 -36 -2 -30 -9 4 -13 0 -11 -11 2 -9 4 -20 4 -24 1 -3 9 -9 19 -11 16 -4
16 -5 0 -6 -18 -1 -26 -31 -8 -31 13 0 0 -32 -19 -48 -14 -10 -13 -11 4 -6 20
6 20 5 1 -10 -11 -9 -14 -16 -7 -16 7 0 10 -4 6 -9 -3 -5 0 -13 6 -17 8 -4 9
-3 5 4 -4 7 0 12 10 12 16 0 16 -1 0 -19 -9 -10 -16 -22 -15 -27 4 -22 -2 -35
-13 -29 -7 4 -5 0 6 -9 10 -8 15 -20 10 -27 -4 -7 1 -18 12 -27 18 -14 18 -14
0 -8 -15 5 -17 2 -13 -13 3 -15 1 -18 -12 -14 -14 4 -14 3 -1 -6 9 -7 83 -11
197 -11 l181 0 4 53 c9 128 -21 340 -69 487 -101 307 -331 604 -592 765 -66
41 -85 61 -23 25 152 -89 351 -277 451 -425 99 -149 181 -341 216 -512 21
-102 36 -285 29 -345 l-7 -48 147 0 146 0 0 246 c0 160 -3 243 -10 239 -5 -3
-19 -8 -31 -10 -18 -4 -20 -1 -14 28 4 18 11 37 15 42 5 6 10 26 12 45 2 21 8
34 15 33 10 -2 13 87 12 407 0 380 -1 410 -17 410 -15 1 -15 2 1 15 16 11 18
24 15 77 -2 35 -8 69 -12 76 -4 7 -2 12 4 12 8 0 9 16 5 53 -4 28 -7 63 -6 77
1 14 4 92 7 174 l7 149 -64 -47 c-133 -96 -198 -130 -374 -191 -22 -7 -64 -18
-93 -23 -68 -12 -249 -16 -255 -5 -3 4 16 8 41 8 26 0 58 4 71 9 16 6 21 5 17
-3 -4 -6 -2 -11 3 -11 6 0 11 4 11 9 0 5 14 11 30 13 17 3 30 0 30 -6 0 -6 5
-5 12 2 7 7 22 12 35 12 25 0 198 55 223 70 8 6 40 22 70 36 66 30 175 98 213
133 l27 25 0 185 c0 124 -4 181 -10 171 -8 -12 -10 -12 -11 5 0 14 -2 16 -6 5
-10 -26 -35 -50 -46 -43 -6 4 -8 -2 -5 -15 4 -12 2 -25 -3 -28 -5 -3 -9 1 -10
8 0 7 -5 3 -11 -9 -6 -13 -15 -23 -20 -23 -14 0 -38 -27 -31 -34 3 -3 1 -12
-6 -20 -9 -11 -9 -15 1 -19 10 -4 9 -9 -4 -20 -10 -8 -18 -19 -18 -25 0 -14
-27 -5 -55 17 -15 12 -15 10 3 -10 23 -26 23 -26 3 -32 -12 -3 -19 -2 -16 3 3
4 -6 7 -19 6 -22 -1 -30 -14 -15 -26 3 -3 -7 -15 -22 -28 l-28 -22 -24 24
c-23 23 -24 23 -35 5 -7 -11 -21 -19 -31 -19 -11 0 -23 -5 -26 -10 -4 -6 -11
-8 -16 -4 -5 3 -20 -1 -33 -9 -27 -18 -54 -17 -67 4 -6 10 -11 11 -16 3 -5 -6
-18 -13 -30 -16 -17 -4 -20 -2 -16 11 4 15 3 15 -9 0 -7 -9 -38 -29 -68 -45
-46 -25 -55 -34 -57 -59 l-2 -30 20 25 c16 19 18 20 10 4 -11 -22 -43 -53 -40
-38 4 23 -2 26 -17 8 -12 -15 -14 -15 -11 -3 4 13 -2 18 -23 21 -16 2 -27 1
-24 -4 3 -4 -1 -8 -9 -8 -26 0 -14 31 15 37 15 3 28 11 28 19 0 7 5 16 12 20
7 4 8 3 4 -4 -10 -16 15 -15 37 2 22 17 22 30 0 21 -10 -4 -34 -9 -53 -11 -33
-3 -34 -2 -16 11 11 8 25 15 32 15 6 0 17 7 24 15 7 9 19 14 27 11 8 -3 11 -1
8 4 -3 5 9 16 27 23 29 12 35 12 51 -1 15 -14 17 -13 17 1 0 10 9 26 21 38 11
11 18 23 15 26 -3 4 3 13 14 20 11 8 18 18 15 23 -3 5 0 12 6 16 8 4 9 3 5 -4
-13 -21 10 -13 30 10 19 22 19 23 -1 8 -19 -14 -20 -14 -2 6 13 16 26 20 55
17 22 -2 32 0 24 5 -9 6 7 24 53 61 63 51 134 129 165 179 11 18 25 25 47 26
17 1 31 -1 31 -4 -1 -20 4 -21 16 -5 16 22 11 45 -11 45 -9 0 -11 -5 -7 -12 6
-10 5 -10 -8 -1 -8 7 -19 9 -24 5 -5 -4 2 5 15 20 20 23 27 26 40 15 10 -8 13
-9 8 0 -5 7 4 6 23 -4 19 -9 29 -21 26 -28 -3 -8 3 -15 12 -17 15 -3 14 -6 -5
-23 -13 -11 -23 -25 -23 -33 0 -7 -7 -15 -16 -19 -8 -3 -13 -12 -10 -20 3 -8
1 -11 -5 -8 -5 4 -16 1 -24 -5 -8 -7 -15 -9 -15 -6 0 4 -6 1 -14 -6 -7 -7 -11
-19 -9 -25 3 -7 0 -13 -6 -13 -6 0 -11 5 -11 10 0 6 -8 10 -17 9 -11 0 -13 -3
-5 -6 6 -2 12 -11 12 -18 0 -7 6 -16 13 -18 8 -4 8 -8 2 -14 -5 -4 -10 -14
-10 -22 0 -8 -6 -16 -13 -19 -6 -2 -10 2 -9 10 2 7 2 10 0 5 -3 -4 -9 -5 -14
-1 -13 8 -11 -10 4 -25 10 -10 8 -12 -8 -9 -13 2 -19 -2 -17 -11 2 -10 -6 -12
-28 -9 -17 3 -34 0 -37 -5 -4 -6 -1 -7 7 -2 9 5 11 4 6 -3 -4 -7 -12 -12 -18
-12 -5 0 -25 -7 -43 -16 -25 -11 -32 -20 -28 -35 7 -27 20 -24 54 12 27 29 29
30 46 13 17 -17 18 -17 21 2 2 11 20 27 44 39 l40 19 18 -22 c10 -12 22 -22
26 -22 4 0 0 8 -9 18 -10 10 -14 22 -10 25 3 4 1 7 -6 7 -7 0 -9 5 -5 12 12
19 12 68 0 68 -7 0 -6 4 1 11 6 6 31 11 57 12 41 2 46 4 46 25 0 15 7 26 19
29 16 4 18 9 10 30 -10 28 -5 43 17 43 8 0 14 6 14 14 0 8 5 16 10 18 14 4 23
118 10 118 -6 0 -10 -4 -10 -8 0 -20 -31 -7 -36 15 -5 19 1 33 27 60 l34 36
-77 -7 c-67 -6 -83 -4 -119 14 l-41 21 3 -50 c2 -28 1 -51 -3 -51 -5 0 -8 -7
-8 -16 0 -8 -5 -25 -12 -37 -7 -12 -11 -32 -9 -43 1 -12 -5 -24 -13 -27 -9 -4
-16 -14 -16 -23 0 -10 -18 -40 -39 -68 -22 -28 -45 -62 -51 -76 -14 -30 -115
-94 -135 -86 -16 6 -74 -22 -140 -67 -58 -39 -76 -36 -124 27 -39 50 -46 54
-114 71 -39 9 -85 24 -100 32 -28 14 -28 14 -17 -8 7 -12 18 -43 24 -68 7 -25
17 -45 24 -44 7 2 9 -4 5 -15 -6 -15 -5 -15 10 -3 26 21 32 6 8 -18 -25 -25
-26 -29 -6 -51 13 -14 14 -26 5 -64 -6 -26 -7 -58 -4 -71 4 -15 2 -25 -4 -25
-6 0 -17 -12 -24 -27 -8 -16 -23 -29 -36 -31 -13 -2 -27 -13 -31 -26 -18 -45
-74 -69 -96 -39 -14 17 -14 17 -15 -4 0 -26 -4 -29 -55 -37 -22 -4 -50 -14
-63 -22 -17 -11 -27 -12 -37 -4 -9 8 -27 5 -66 -11 -66 -26 -159 -22 -231 9
-60 26 -86 72 -127 217 -44 153 -50 202 -41 324 9 118 13 133 46 177 19 25 33
33 73 38 28 4 78 15 112 26 33 11 77 19 97 18 21 0 81 10 135 23 l99 23 39
-21 39 -21 -24 41 c-23 39 -30 65 -27 93 1 16 128 172 171 212 35 33 34 33
-57 -13 -51 -25 -98 -45 -105 -44 -20 3 -48 -12 -48 -26 0 -6 -9 -20 -20 -30
-20 -18 -20 -17 -20 11 0 26 -6 33 -50 51 -51 22 -80 60 -57 75 6 4 8 10 5 14
-4 4 -3 15 2 25 9 15 2 23 -45 51 -88 52 -128 151 -88 218 l16 28 -51 51 c-37
37 -55 65 -68 105 -16 51 -16 57 -1 98 9 24 34 62 55 86 l38 43 54 -14 c42
-11 50 -16 35 -21 -11 -4 -40 -33 -65 -66 -25 -32 -49 -55 -55 -52 -5 3 -5 -1
2 -9 6 -8 17 -37 24 -64 6 -28 19 -56 28 -63 9 -7 15 -15 14 -17 -2 -3 -3 -12
-3 -21 0 -29 29 4 42 49 8 28 22 46 45 60 34 20 46 35 16 19 -45 -24 -74 42
-31 72 12 9 28 16 36 16 20 0 83 46 75 54 -4 4 0 4 9 1 10 -4 22 2 31 15 9 12
20 19 26 16 5 -4 15 3 21 14 6 11 14 19 18 19 53 -8 47 17 -6 27 -20 3 -46 12
-57 19 -26 16 -124 -2 -175 -34 -37 -22 -55 -27 -46 -12 12 19 154 121 217
154 157 86 295 122 484 126 128 2 180 -6 198 -32 7 -9 10 -9 14 1 7 18 53 15
95 -7 19 -11 38 -18 40 -16 3 3 5 -10 5 -28 0 -17 3 -44 7 -59 3 -16 2 -28 -3
-28 -9 0 -35 58 -33 71 1 4 -9 9 -22 11 -17 3 -23 1 -19 -8 5 -13 -21 -14 -33
-1 -4 4 -18 7 -32 7 -15 0 -22 5 -19 13 2 6 10 11 16 9 7 -1 10 2 6 8 -9 14
-35 13 -35 -2 0 -10 -2 -10 -9 0 -12 19 -41 -12 -36 -38 7 -39 -36 -15 -49 27
-6 19 -10 20 -44 10 -20 -6 -40 -15 -43 -21 -4 -5 -16 -6 -28 -3 -12 3 -24 1
-27 -4 -3 -5 3 -9 13 -9 10 0 35 -3 56 -6 21 -4 37 -3 36 2 -4 22 2 34 16 34
11 0 14 -7 9 -25 -5 -20 -3 -24 9 -19 8 3 18 1 22 -5 3 -6 18 -11 32 -11 15 0
23 3 20 6 -10 10 13 45 24 38 6 -3 8 -12 5 -19 -3 -8 4 -17 15 -20 19 -6 27
-35 9 -35 -5 0 -10 -8 -10 -18 0 -15 -8 -18 -42 -19 -24 0 -46 3 -49 8 -3 5
-15 0 -27 -12 -16 -14 -29 -18 -44 -13 -20 6 -21 5 -6 -10 21 -20 27 -20 45 2
8 9 12 11 8 5 -8 -16 32 -17 71 -3 20 8 29 8 35 -1 4 -6 12 -8 18 -5 6 4 11 3
11 -2 0 -6 -12 -13 -26 -16 -25 -7 -25 -8 -8 -21 10 -7 22 -11 27 -8 18 11 67
21 62 12 -4 -5 -1 -10 4 -10 6 -1 16 -3 21 -4 6 -1 15 -3 20 -4 6 0 10 -6 10
-12 0 -6 -6 -9 -14 -6 -8 3 -16 1 -18 -5 -6 -17 -36 -18 -42 -2 -3 8 -10 14
-16 14 -6 0 -9 -4 -5 -9 3 -6 -3 -14 -12 -20 -10 -6 -14 -11 -9 -11 5 0 3 -7
-4 -15 -13 -15 -35 -11 -25 6 10 15 -22 10 -35 -6 -15 -18 -47 -20 -53 -2 -2
6 0 22 4 34 5 13 6 30 3 38 -4 8 -1 15 6 15 6 0 8 5 4 11 -4 7 -12 2 -23 -14
-9 -14 -22 -22 -31 -19 -8 3 -12 1 -8 -3 4 -4 0 -14 -10 -22 -9 -8 -12 -12 -7
-9 22 10 36 -9 26 -35 -5 -13 -10 -19 -11 -14 0 6 -5 3 -11 -5 -9 -12 -10 -11
-6 8 3 12 1 20 -3 17 -5 -3 -13 2 -18 10 -5 10 -15 13 -25 9 -25 -9 -21 -23 5
-16 16 4 19 2 13 -8 -5 -9 -4 -11 3 -6 7 4 12 2 12 -5 0 -8 -12 -10 -41 -5
-36 6 -44 3 -66 -20 l-24 -26 -18 20 c-17 20 -18 20 -33 3 -18 -21 -6 -43 18
-34 8 3 14 -1 14 -8 0 -11 3 -11 10 1 6 9 10 10 10 3 0 -6 -5 -15 -10 -18 -6
-4 2 -21 21 -43 48 -54 91 -164 69 -177 -5 -3 -10 -15 -10 -25 0 -14 5 -18 18
-13 13 5 11 0 -7 -20 -14 -15 -23 -27 -20 -28 2 0 12 -2 22 -4 13 -2 17 1 13
11 -3 9 -1 12 4 9 17 -10 11 -41 -12 -61 -12 -10 -18 -13 -14 -6 4 6 2 12 -3
12 -6 0 -11 -12 -11 -27 0 -16 -9 -39 -20 -53 -24 -31 -26 -48 -2 -28 9 9 35
21 58 28 36 11 47 10 85 -7 24 -11 72 -46 107 -77 73 -65 89 -72 40 -18 -30
34 -36 49 -47 125 -10 71 -9 92 2 120 11 26 12 44 4 84 -8 40 -7 61 3 95 8 24
15 54 16 67 4 36 65 119 100 136 57 27 220 16 441 -30 l22 -5 1 435 0 435 -37
-16 c-77 -33 -213 -84 -230 -87 -10 -1 -23 -6 -29 -10 -18 -11 -201 -55 -303
-72 -137 -24 -345 -35 -484 -27 -151 8 -198 8 -217 -1 -11 -5 -19 1 -28 22 -7
16 -23 31 -35 34 -20 6 -20 5 -4 -7 9 -7 17 -15 17 -18 0 -10 -94 8 -98 19 -2
9 6 11 30 8 28 -4 30 -4 8 4 -35 12 -62 13 -55 1 8 -13 -15 -13 -73 1 -55 14
-77 29 -42 29 20 0 22 2 10 10 -22 14 -40 12 -40 -5 0 -8 -6 -12 -13 -9 -7 2
-55 -21 -107 -52 l-94 -57 -18 22 c-17 22 -17 23 64 83 l80 61 -51 14 c-29 7
-85 27 -125 43 -43 18 -81 28 -92 24 -13 -4 -15 -3 -6 3 8 7 -10 20 -62 46
-42 20 -80 37 -86 37 -6 0 -8 6 -4 13 5 7 0 6 -11 -3 -10 -8 -16 -10 -12 -3 4
7 0 14 -11 17 -17 6 -165 100 -193 124 -8 7 -48 38 -89 69 -41 31 -79 63 -83
70 -4 7 -13 13 -18 13 -11 0 -139 128 -211 211 -113 130 -137 162 -226 299
-79 119 -151 254 -201 375 -35 84 -122 407 -136 505 -2 14 -9 59 -15 100 -16
104 -14 170 8 274 l19 89 6 -144 c10 -231 43 -404 126 -673 22 -71 38 -133 35
-137 -2 -4 1 -11 9 -16 7 -4 26 -37 41 -73 25 -56 50 -103 117 -220 8 -14 17
-27 20 -30 10 -7 48 -71 61 -102 7 -16 18 -28 24 -28 7 0 15 -7 18 -16 7 -19
32 -52 111 -147 33 -40 64 -78 70 -85 9 -11 85 -87 162 -159 13 -13 27 -23 30
-23 3 0 21 -16 39 -35 19 -18 34 -32 34 -29 0 3 17 -7 38 -23 20 -16 66 -47
101 -69 35 -21 72 -47 81 -56 10 -9 20 -14 23 -12 3 3 22 -7 43 -21 45 -31
175 -93 213 -101 14 -4 35 -12 46 -19 11 -6 38 -18 60 -25 22 -7 46 -19 53
-28 6 -9 12 -12 12 -8 0 5 11 1 25 -8 24 -16 27 -15 87 29 35 25 63 48 63 52
0 3 -29 13 -65 22 -78 21 -158 56 -305 135 -60 32 -123 66 -140 74 -16 9 -32
19 -35 23 -3 4 -26 18 -52 32 -26 14 -44 28 -41 31 4 3 1 6 -5 6 -6 0 -17 6
-24 13 -7 7 -28 23 -47 36 -52 37 -152 131 -247 232 -54 58 -57 66 -34 72 11
3 18 1 15 -3 -3 -5 1 -12 8 -17 8 -4 22 -20 32 -35 9 -16 24 -28 31 -28 8 0
14 -5 14 -11 0 -5 5 -7 10 -4 6 4 9 1 8 -7 -2 -7 3 -12 10 -10 8 1 11 -2 7 -8
-4 -6 7 -13 24 -16 19 -4 31 -13 31 -23 0 -14 2 -14 10 -1 8 12 10 12 16 -3 4
-10 13 -16 20 -13 8 3 13 2 13 -2 -4 -28 3 -34 31 -28 20 4 29 2 25 -5 -9 -14
14 -39 36 -39 11 0 19 -5 19 -12 0 -6 3 -9 6 -5 3 3 17 2 29 -3 19 -7 25 -5
28 8 3 11 5 9 6 -7 1 -24 1 -24 15 -5 8 10 18 16 22 12 4 -4 1 -14 -6 -23 -10
-13 -9 -15 9 -15 25 0 54 -24 43 -34 -3 -4 1 -4 11 0 11 4 17 1 17 -7 1 -10 5
-9 14 4 7 9 17 17 21 17 4 0 2 -7 -5 -15 -9 -11 -9 -15 -1 -15 7 0 10 -4 7 -8
-2 -4 7 -9 20 -10 15 -1 23 2 19 8 -4 6 -11 7 -17 4 -7 -4 -8 -2 -4 5 4 6 11
9 16 6 4 -3 10 2 14 10 8 21 25 19 23 -4 0 -10 -6 -17 -12 -15 -6 3 -11 -4
-12 -15 -1 -15 3 -18 15 -14 9 4 21 11 25 17 5 7 7 2 4 -11 -3 -13 -1 -26 4
-29 5 -3 9 2 9 10 0 10 6 13 16 9 13 -5 13 -7 2 -14 -9 -6 -7 -9 10 -9 12 0
22 -5 22 -11 0 -5 5 -7 10 -4 5 3 10 1 10 -5 0 -8 6 -8 20 0 21 11 44 5 35
-10 -3 -5 10 -16 30 -26 19 -9 35 -20 35 -25 0 -14 42 0 67 22 12 13 23 17 23
11 0 -7 -6 -12 -12 -12 -10 0 -10 -2 0 -9 7 -4 25 -6 39 -3 22 4 25 2 20 -12
-4 -9 -3 -14 2 -11 5 3 12 1 16 -5 3 -5 11 -10 16 -10 6 0 8 4 5 8 -3 4 9 7
25 6 32 -2 53 -13 28 -15 -8 0 0 -5 16 -10 19 -5 31 -5 33 1 2 6 13 10 25 10
18 0 19 -2 7 -10 -8 -5 -10 -10 -5 -10 6 0 81 52 169 116 87 63 232 165 322
225 128 86 162 113 157 127 -5 13 -3 14 7 5 24 -22 118 51 106 82 -3 9 -2 14
3 11 5 -3 12 5 15 19 4 14 11 25 17 25 6 0 8 -10 5 -22 -3 -13 -3 -17 0 -10 3
6 13 12 22 13 11 0 13 2 4 6 -10 4 -10 8 -1 19 10 12 9 13 -5 8 -12 -5 -15 -2
-10 10 3 9 10 16 14 16 4 0 5 11 2 25 -4 22 -1 25 22 25 15 0 25 -4 22 -8 -2
-4 7 -9 22 -10 14 -1 36 -9 48 -17 20 -13 24 -12 47 8 13 12 29 23 35 24 18 4
216 124 239 146 12 11 20 24 16 30 -3 6 -1 7 5 3 6 -3 29 6 51 21 l41 28 -1
159 c-1 87 -5 152 -10 145 -7 -12 -16 9 -20 51 -3 36 0 43 16 30 13 -10 15 -9
15 9 0 19 -10 26 -33 22 -5 -1 -6 3 -3 8 4 5 0 12 -6 14 -7 3 -1 6 15 6 22 1
27 6 27 27 0 19 -7 28 -31 36 -16 6 -28 12 -26 14 2 3 16 0 30 -5 l25 -10 1
302 c0 270 -2 303 -17 321 -16 20 -16 20 1 7 16 -12 17 -9 17 53 l0 66 -260 0
c-166 0 -260 -4 -260 -10 0 -5 20 -19 45 -31 25 -12 45 -26 44 -33 -3 -18 12
-46 22 -40 16 10 9 -67 -8 -99 -28 -47 -81 -97 -98 -91 -8 4 -15 1 -15 -6 0
-10 -18 -11 -71 -7 -93 8 -139 39 -139 95 0 29 -3 34 -11 22 -9 -12 -10 -12
-5 3 3 10 6 23 6 28 0 6 10 5 23 -2 22 -12 22 -12 -2 14 -14 15 -21 33 -18 41
4 9 2 16 -3 16 -6 0 -10 7 -10 15 0 8 5 15 11 15 5 0 7 5 4 10 -3 6 -1 10 4
10 6 0 11 7 11 15 0 8 7 15 15 15 8 0 15 5 15 10 0 6 -57 10 -151 10 -138 0
-150 -1 -145 -17 16 -59 17 -81 2 -86 -15 -6 -45 15 -47 34 -1 5 -3 14 -4 19
-1 6 -3 19 -4 30 -1 19 -8 20 -115 20 l-114 0 9 -37 c5 -23 4 -39 -1 -41 -10
-4 -14 -42 -5 -42 2 0 23 7 45 16 52 21 100 6 93 -29 -4 -21 -3 -21 10 2 9 16
17 20 21 12 4 -6 12 -9 17 -5 5 3 7 10 4 15 -4 5 -1 9 5 9 15 0 32 -50 26 -80
-3 -14 -3 -19 0 -12 9 20 20 14 19 -11 0 -13 -6 -31 -14 -40 -10 -13 -11 -32
-6 -74 6 -52 8 -56 21 -38 8 10 14 14 14 8 0 -5 -10 -18 -23 -29 -12 -10 -19
-15 -15 -10 4 5 -4 23 -18 41 -19 25 -25 46 -26 84 0 55 -6 62 -25 32 -10 -15
-10 -21 0 -24 9 -4 9 -6 0 -6 -19 -1 -15 -29 6 -48 11 -9 17 -21 14 -26 -3 -4
5 -19 17 -32 17 -18 20 -27 11 -42 -10 -17 -10 -16 -11 4 0 12 -5 25 -11 29
-8 4 -9 -4 -4 -27 4 -22 3 -29 -3 -21 -7 11 -10 8 -14 -11 -3 -16 3 -33 20
-53 24 -28 25 -28 18 -4 -4 19 -3 18 8 -5 8 -16 18 -29 22 -27 5 2 10 -2 12
-10 2 -9 0 -8 -7 2 -8 12 -11 12 -11 1 0 -11 -4 -10 -23 2 -23 15 -24 14 -24
-11 0 -15 -3 -40 -6 -56 -4 -18 -1 -37 8 -50 l15 -20 0 22 c0 12 4 22 9 22 5
0 9 -27 8 -60 0 -32 -4 -57 -9 -54 -4 3 -8 12 -8 21 0 9 -3 14 -6 11 -3 -4 -7
-37 -9 -75 -3 -48 -1 -59 4 -38 8 29 9 29 10 4 0 -14 -2 -29 -6 -33 -4 -3 -8
-16 -10 -27 -2 -16 1 -20 13 -15 13 5 14 3 7 -6 -10 -12 -23 -88 -16 -88 2 0
8 10 13 23 6 16 9 17 9 5 1 -9 -7 -23 -17 -30 -10 -7 -24 -22 -30 -33 -10 -18
-11 -17 -11 10 -2 71 -6 80 -20 43 -4 -13 -4 -36 0 -53 5 -17 5 -33 0 -38 -14
-14 -29 24 -26 65 2 21 -1 41 -7 44 -7 4 -8 2 -4 -4 4 -7 3 -12 -2 -12 -5 0
-6 -18 -2 -42 9 -45 3 -69 -10 -48 -4 7 -13 9 -19 6 -6 -4 -9 -11 -6 -16 7
-12 -8 -20 -22 -12 -15 10 -27 52 -14 52 12 0 15 39 5 64 -9 23 -34 7 -34 -21
0 -16 -7 -27 -20 -30 -11 -3 -17 -10 -14 -15 3 -5 12 -7 20 -4 10 4 14 -2 13
-22 -2 -34 17 -82 32 -82 6 0 9 -7 5 -15 -3 -8 0 -14 6 -12 7 1 12 -3 13 -10
0 -23 14 -25 42 -5 29 20 73 37 73 28 0 -3 -10 -16 -22 -29 -25 -27 -62 -87
-55 -87 3 0 19 21 36 47 32 48 42 44 16 -8 -9 -16 -13 -35 -9 -41 4 -7 3 -8
-4 -4 -7 4 -12 1 -12 -9 0 -9 4 -13 10 -10 5 3 7 0 4 -9 -7 -19 -74 -70 -74
-57 0 6 7 14 16 19 18 10 27 63 10 56 -6 -2 -20 -18 -31 -34 -19 -29 -44 -43
-29 -17 4 6 -3 2 -15 -10 -12 -13 -23 -23 -25 -23 -10 0 1 62 13 69 7 5 11 15
9 22 -3 8 1 29 8 48 18 43 18 51 -1 51 -8 0 -15 4 -15 9 0 5 -9 11 -21 14 -16
4 -18 3 -8 -9 18 -21 -7 -47 -32 -33 -21 11 -26 59 -6 59 6 0 -7 10 -30 22
-24 12 -43 27 -43 34 0 7 -9 19 -20 27 -11 8 -22 29 -24 48 -3 19 -5 36 -5 39
-1 3 -13 7 -28 8 -15 1 -32 7 -38 13 -14 14 33 49 64 46 13 -1 26 4 28 11 3 7
-1 11 -7 10 -7 -2 -13 7 -15 20 -1 12 2 22 7 22 4 0 8 5 8 10 0 6 -7 10 -15
10 -8 0 -21 12 -29 28 -9 16 -15 21 -16 11 0 -8 7 -24 15 -35 18 -24 19 -38 3
-28 -9 5 -9 2 1 -9 17 -22 -2 -23 -23 -1 -9 8 -16 12 -16 7 0 -5 5 -14 12 -21
9 -9 9 -12 0 -12 -12 0 -28 45 -24 68 2 6 -2 12 -8 12 -5 0 -10 -6 -11 -12 0
-7 -4 -4 -9 7 -5 11 -9 14 -9 7 -1 -7 4 -20 10 -30 8 -13 9 -28 2 -48 -10 -31
-30 -37 -52 -16 -11 10 -16 10 -29 0 -9 -7 -13 -8 -9 -2 8 14 -53 6 -72 -10
-11 -8 -13 -8 -8 1 4 6 2 15 -4 19 -8 4 -9 3 -5 -4 4 -7 3 -12 -3 -12 -6 0
-16 -10 -22 -22 -11 -21 -11 -22 5 -9 21 17 136 20 136 3 0 -4 -24 -7 -54 -6
-50 1 -55 0 -59 -22 -2 -13 -1 -21 3 -19 4 3 15 -4 25 -15 17 -19 17 -20 -1
-20 -19 -1 -19 -1 0 -15 20 -15 20 -15 1 -29 -11 -8 -24 -12 -30 -9 -5 4 -7 3
-3 -2 4 -4 3 -14 -3 -21 -7 -9 -5 -18 9 -32 11 -11 18 -23 15 -26 -3 -3 0 -13
7 -21 11 -13 10 -18 -8 -31 -31 -21 -29 -48 2 -40 18 4 25 1 29 -15 8 -28 27
-15 27 19 0 25 0 25 16 6 8 -10 12 -12 8 -4 -4 8 -3 12 1 7 5 -4 8 -30 8 -57
-1 -40 -6 -55 -25 -70 -12 -11 -17 -19 -10 -20 8 0 11 -10 9 -27 -3 -20 -11
-29 -31 -34 -22 -6 -27 -5 -22 7 4 10 1 14 -6 11 -7 -2 -12 -11 -10 -20 2 -12
-2 -15 -14 -10 -11 4 -15 3 -10 -5 4 -6 21 -8 41 -5 28 5 35 2 35 -11 0 -10
-4 -14 -10 -11 -5 3 -10 -3 -10 -14 0 -17 -5 -20 -30 -14 -27 5 -29 3 -23 -13
6 -16 5 -17 -9 -4 -9 8 -13 17 -9 20 10 8 13 40 3 40 -15 0 -34 -28 -27 -40 9
-15 -23 -24 -40 -10 -15 12 -55 5 -55 -10 0 -5 10 -7 22 -5 34 7 63 -4 49 -18
-9 -9 -14 -9 -20 1 -10 16 -61 -1 -61 -20 0 -9 -3 -9 -12 0 -9 9 -9 15 0 24
14 14 16 32 3 24 -10 -7 -31 37 -31 65 0 11 -4 18 -8 15 -5 -3 -23 10 -40 29
-29 33 -61 49 -46 23 4 -7 -4 -2 -16 11 -15 15 -25 20 -28 13 -2 -7 -8 -10
-13 -6 -13 8 -11 -3 5 -29 8 -12 16 -33 18 -47 3 -21 -1 -25 -25 -25 -16 -1
-31 3 -33 7 -3 4 2 8 11 8 9 0 13 5 10 11 -4 6 -14 8 -22 5 -18 -7 -33 7 -61
62 -23 44 -22 62 4 62 17 0 19 34 2 52 -27 29 -17 52 11 26 11 -11 13 -10 8 5
-4 9 -3 17 1 17 10 0 13 39 6 69 -4 20 -7 22 -15 10 -5 -7 -9 -9 -10 -4 0 6
-2 18 -4 28 -2 9 0 15 5 12 11 -7 22 58 14 79 -4 11 -9 13 -13 7 -4 -6 -17 -3
-36 9 -17 11 -25 20 -18 20 8 0 9 9 2 35 -7 24 -7 41 1 53 10 14 11 13 7 -10
-3 -19 0 -28 9 -28 8 0 11 -7 8 -17 -4 -13 -3 -14 3 -5 6 7 21 11 34 8 28 -5
99 -35 84 -36 -5 0 -4 -5 3 -12 17 -17 15 -31 -3 -24 -13 5 -12 1 2 -18 l18
-24 3 26 c4 33 29 62 47 55 22 -8 41 8 21 19 -9 5 -21 6 -26 3 -6 -3 -10 5
-10 19 0 14 -4 26 -8 26 -5 0 -19 22 -31 50 l-23 50 23 32 c42 59 86 77 96 39
4 -15 10 -18 27 -12 11 5 26 6 33 4 6 -2 14 1 18 6 3 6 15 11 26 11 11 0 19 7
19 16 0 11 -6 14 -17 10 -15 -5 -14 -3 2 9 11 9 20 21 21 28 0 7 2 18 2 26 1
7 8 11 17 7 8 -3 15 -2 15 3 0 5 9 11 20 14 11 3 20 11 20 17 0 10 -3 10 -15
0 -10 -8 -15 -9 -15 -2 0 6 8 16 18 21 9 6 13 11 8 11 -5 0 1 11 13 24 14 15
20 30 16 37 -5 7 -4 10 3 5 6 -3 13 2 16 11 3 10 19 27 35 38 17 11 28 21 26
24 -3 2 6 14 20 26 13 13 21 26 17 31 -4 4 0 5 8 2 11 -4 16 1 17 15 1 11 7
25 14 31 9 8 10 7 6 -7 -6 -15 -3 -17 16 -11 30 9 66 37 67 50 0 6 11 17 25
24 25 14 33 30 15 30 -6 0 -13 -6 -16 -14 -4 -10 -11 -8 -30 11 -27 27 -31 38
-10 30 8 -3 20 0 26 8 17 20 -6 28 -32 11 -23 -15 -44 -16 -65 -3 -6 4 -13 4
-16 0 -2 -5 -1 -1 2 7 3 8 5 52 5 97 l1 82 -38 -1 c-23 0 -41 -7 -48 -17 -9
-14 -10 -14 -5 2 5 15 -4 17 -85 17 -69 0 -89 -3 -83 -12 6 -10 4 -10 -7 0
-15 14 -374 18 -365 4 7 -11 -20 -97 -38 -124 -13 -18 -13 -22 0 -35 12 -12
12 -18 3 -30 -7 -7 -18 -12 -26 -9 -9 4 -13 -3 -13 -22 0 -33 -17 -53 -38 -45
-11 5 -13 3 -6 -8 11 -17 12 -89 1 -89 -15 0 -19 30 -7 45 9 10 9 15 1 15 -14
0 -15 37 -1 45 6 4 8 10 5 15 -7 11 20 61 29 52 5 -4 7 0 5 8 -2 8 0 28 4 43
5 19 3 34 -5 45 -8 10 -9 13 -1 9 6 -4 15 -2 19 4 4 7 3 9 -4 5 -6 -3 -13 -2
-16 3 -4 5 -2 12 4 16 5 3 10 19 10 35 l0 30 -825 0 -826 0 17 -25 c20 -30 15
-32 -17 -4 l-24 20 -16 -108 c-17 -118 -40 -197 -72 -250 -17 -29 -19 -44 -13
-106 8 -79 23 -138 40 -150 8 -6 7 -10 -1 -14 -7 -2 -13 -17 -13 -31 0 -19 -8
-31 -27 -39 -39 -18 -49 -16 -71 15 -17 22 -23 25 -33 15 -10 -11 -10 -13 0
-13 7 0 9 -5 5 -11 -3 -6 -1 -15 6 -19 7 -4 9 -13 5 -19 -5 -9 -11 -9 -23 0
-10 6 -2 -2 16 -18 18 -17 34 -38 36 -49 2 -10 6 -25 8 -33 2 -8 -8 -17 -22
-22 -14 -4 -19 -7 -12 -8 6 -1 12 -6 12 -12 0 -6 -6 -9 -13 -6 -6 2 -17 -1
-24 -8 -10 -10 -6 -15 15 -20 15 -4 22 -9 15 -12 -7 -2 -10 -10 -7 -18 8 -20
-17 -30 -28 -11 -7 12 -13 14 -29 6 -13 -8 -19 -8 -19 0 0 6 -7 6 -19 -2 -15
-9 -17 -16 -9 -25 12 -15 -13 -29 -37 -19 -8 3 -14 0 -12 -7 4 -23 -44 -18
-155 16 -62 20 -128 38 -145 42 -42 8 -46 16 -48 89 -3 136 -5 146 -20 146 -8
0 -15 -8 -15 -17 -1 -17 -1 -17 -11 0 -17 30 -4 48 26 37 41 -16 29 -3 -17 18
-24 11 -54 31 -66 45 -26 28 -26 63 1 61 15 -2 17 9 17 75 0 115 8 151 34 151
11 0 27 -4 35 -9 8 -5 27 -3 48 6 49 20 87 14 91 -14 2 -13 7 -23 11 -23 13 0
31 24 31 42 0 20 -26 25 -33 6 -6 -18 -28 38 -34 88 -3 23 0 51 6 62 12 23 -3
112 -20 112 -5 0 -8 8 -7 18 2 32 -2 52 -11 52 -6 0 -11 -17 -13 -37 -2 -30
-7 -38 -23 -38 -11 0 -25 -7 -32 -16 -16 -22 -74 -33 -85 -17 -5 9 -8 5 -8
-11 0 -14 7 -33 17 -43 18 -21 13 -30 -20 -34 -12 -1 -25 -3 -29 -3 -5 -1 -8
-7 -8 -14 0 -16 -57 -50 -70 -42 -17 10 -11 44 10 57 11 7 20 18 20 25 0 7 5
13 10 13 6 0 10 9 10 20 0 18 -3 19 -21 10 -11 -7 -32 -9 -45 -6 -28 7 -28 15
-9 -104 16 -105 33 -162 71 -233 16 -30 23 -55 19 -67 -6 -20 -7 -20 -27 5
-10 14 -25 25 -31 25 -14 0 -37 46 -37 72 0 10 -4 18 -10 18 -5 0 -12 17 -15
38 -4 20 -10 45 -14 56 -6 17 -8 17 -20 2 -9 -11 -10 -16 -2 -16 6 0 11 -7 11
-15 0 -20 -37 -19 -58 2 -14 14 -18 14 -20 2 -3 -15 -75 -69 -92 -69 -13 0
-13 27 1 35 12 8 -135 154 -199 199 -23 16 -39 33 -35 39 3 5 1 7 -4 4 -6 -4
-35 14 -64 41 -30 26 -47 39 -39 28 13 -16 12 -20 -2 -30 -15 -11 -13 -13 13
-23 16 -6 29 -18 29 -27 0 -12 6 -15 25 -10 47 12 42 -34 -10 -98 -14 -16 -25
-47 -29 -80 -4 -30 -15 -86 -25 -124 -16 -61 -16 -73 -4 -90 7 -10 11 -24 9
-30 -3 -7 2 -18 10 -24 8 -7 14 -9 14 -4 0 5 5 2 10 -6 8 -12 10 -9 10 13 0
17 -5 27 -15 27 -8 0 -15 5 -15 10 0 6 4 10 9 10 6 0 13 -4 16 -10 3 -5 21
-10 39 -10 23 0 41 -9 60 -29 15 -16 28 -32 27 -35 -4 -24 2 -34 23 -38 18 -4
26 0 29 14 4 15 12 17 36 13 16 -3 33 -1 36 5 3 5 0 10 -7 11 -7 0 -1 5 14 10
14 6 29 20 32 33 3 13 15 26 26 29 26 7 26 -13 0 -46 -20 -25 -27 -53 -12 -43
13 8 241 10 249 3 12 -13 -31 -35 -82 -41 -27 -4 -86 -10 -130 -13 -71 -5
-104 -8 -127 -12 -4 0 -3 -12 2 -25 6 -17 5 -26 -3 -29 -21 -7 -65 16 -76 40
-6 13 -18 26 -26 29 -8 4 -15 13 -15 22 0 11 -3 13 -10 6 -14 -14 16 -126 38
-141 9 -7 26 -19 37 -27 20 -15 19 -15 -5 -16 -19 -1 -13 -6 25 -20 59 -23 58
-23 49 -9 -11 18 42 3 109 -31 l59 -29 -7 42 c-6 41 -5 41 9 17 9 -14 13 -36
10 -50 -3 -19 2 -32 22 -50 42 -40 88 -143 49 -110 -9 7 -28 10 -47 6 -31 -5
-40 1 -130 84 -54 49 -110 92 -125 96 -16 3 -41 10 -57 15 -30 9 -49 4 -31 -9
6 -4 10 -23 11 -42 0 -19 4 -43 9 -54 6 -14 4 -17 -11 -14 -13 2 -22 16 -28
46 -6 23 -16 42 -23 42 -7 0 -15 11 -19 24 -4 16 -18 27 -45 36 -24 8 -38 18
-35 26 2 7 -4 14 -15 17 -12 3 -17 11 -13 21 4 10 -1 18 -12 23 -55 21 -204
142 -205 167 -4 69 14 130 53 187 21 32 27 35 42 24 10 -8 13 -16 7 -19 -6 -4
-9 -12 -7 -19 1 -7 1 -8 -2 -4 -5 10 -32 -12 -32 -25 0 -6 9 -8 21 -5 19 5 21
3 15 -31 -20 -123 -20 -125 13 -156 17 -17 31 -24 31 -18 0 7 5 12 11 12 6 0
9 -9 6 -20 -4 -16 5 -27 39 -50 24 -17 47 -37 51 -44 4 -8 24 -16 43 -17 40
-4 42 7 12 70 -14 30 -23 36 -51 37 -59 3 -86 61 -86 184 0 36 4 88 9 116 7
44 6 52 -9 58 -15 5 -16 4 -5 -9 17 -20 5 -32 -15 -15 -18 15 -19 49 -3 104
14 46 31 68 50 64 8 -2 14 9 16 30 2 17 -1 32 -7 32 -5 0 -52 -15 -103 -34
-83 -31 -117 -44 -183 -71 -24 -10 -31 -12 -70 -15 -30 -3 -30 -3 7 -13 44
-12 60 -43 33 -63 -9 -7 -36 -16 -58 -19 -73 -12 -151 -36 -194 -61 -24 -14
-43 -20 -43 -14 0 6 7 13 15 16 8 4 15 12 15 20 0 8 8 14 18 14 24 1 57 29 77
69 9 18 25 36 36 38 28 8 23 21 -14 43 -48 29 -76 101 -44 113 9 4 9 6 -1 6
-7 1 -10 6 -7 11 4 6 9 22 11 37 3 15 10 33 16 40 8 11 -98 13 -561 13 -537 0
-571 -1 -571 -17z m5148 -88 c15 -1 53 4 85 10 52 11 57 10 57 -6 0 -10 5 -21
10 -24 6 -3 10 -15 10 -26 0 -10 5 -28 11 -38 24 -38 -39 -111 -95 -111 -8 0
-20 -10 -28 -23 -9 -12 -28 -29 -44 -37 -16 -8 -32 -19 -35 -24 -4 -5 -29 -20
-55 -35 -32 -17 -50 -34 -52 -47 -2 -15 -9 -20 -20 -17 -9 2 -27 -5 -39 -16
-12 -12 -30 -21 -40 -21 -10 -1 -36 -9 -58 -20 -22 -10 -43 -16 -47 -14 -5 3
-11 -2 -14 -10 -3 -9 -17 -16 -30 -16 -12 0 -36 -12 -51 -26 -37 -35 -109 -84
-122 -84 -20 0 -11 19 17 34 15 8 23 15 18 16 -6 0 -27 -12 -48 -27 -30 -20
-42 -23 -50 -15 -12 12 -10 13 15 16 6 0 12 6 12 11 2 33 18 56 38 53 22 -3
32 2 68 35 11 10 24 15 28 12 9 -5 26 23 23 38 -1 4 4 7 11 7 23 0 95 93 88
115 -1 6 0 7 4 3 8 -7 85 37 97 55 4 6 -7 26 -23 44 -41 47 -37 77 11 79 47 3
51 4 44 15 -3 6 -17 9 -30 6 -27 -5 -31 13 -13 60 l11 28 11 -23 c12 -26 28
-24 43 6 l11 22 13 -24 c7 -13 9 -30 5 -37 -5 -7 -4 -10 3 -5 6 3 14 -3 17
-15 4 -11 9 -19 11 -16 2 2 -3 20 -11 40 -13 30 -13 37 -2 37 8 0 19 -10 26
-22 l12 -23 -5 23 c-3 18 -1 22 10 18 8 -3 13 -2 11 2 -3 4 -1 18 4 31 9 23
10 23 29 6 11 -10 33 -19 48 -20z m-4348 -281 c0 -22 89 -216 130 -283 109
-181 237 -321 441 -486 9 -7 38 -25 63 -40 26 -15 45 -30 42 -32 -6 -6 -87 43
-165 99 -97 70 -281 265 -354 375 -85 126 -178 335 -200 448 -5 22 0 17 18
-20 14 -27 25 -55 25 -61z m2904 -146 c-112 -261 -327 -524 -552 -675 -70 -46
-279 -153 -301 -153 -9 0 27 22 80 48 333 167 606 449 759 784 47 103 59 100
14 -4z m-2240 -415 c4 -9 -1 -21 -11 -29 -10 -7 -13 -13 -8 -13 6 0 19 6 29
14 23 17 82 20 91 5 4 -6 1 -18 -7 -27 -7 -9 -21 -32 -30 -52 -16 -36 -22 -38
-45 -19 -8 7 -16 3 -25 -11 -7 -12 -23 -21 -37 -21 -22 0 -23 3 -18 48 4 35 1
52 -11 65 -14 16 -13 19 7 41 24 26 55 25 65 -1z m1966 -133 c30 -46 50 -63
50 -41 0 5 15 12 34 15 19 4 47 17 62 29 l29 22 -20 -27 c-11 -15 -29 -29 -40
-31 -11 -3 -3 -4 17 -3 23 0 38 6 38 13 0 7 9 17 19 23 28 14 36 13 21 -5 -7
-8 -16 -13 -20 -10 -5 3 -6 -4 -3 -14 13 -49 -61 -217 -127 -291 -27 -30 -25
-26 10 28 48 72 100 179 100 204 0 9 -6 20 -12 24 -7 4 -10 4 -6 -1 4 -4 -1
-20 -12 -35 -11 -16 -20 -30 -20 -33 0 -3 -14 -21 -30 -39 -26 -27 -32 -30
-40 -18 -5 8 -8 21 -5 28 2 6 0 12 -5 12 -6 0 -9 13 -8 29 1 19 7 27 15 24 7
-3 0 9 -15 25 -26 29 -46 26 -22 -2 7 -10 8 -16 0 -21 -5 -3 -10 2 -10 11 0
16 -1 16 -15 -2 -15 -19 -15 -19 -30 0 -8 11 -15 27 -14 35 0 9 5 4 11 -11 11
-31 23 -36 32 -12 10 26 7 66 -4 59 -6 -4 -9 -3 -8 2 1 4 -3 18 -10 29 -9 18
-8 34 4 34 1 0 16 -22 34 -50z m271 -214 c-24 -54 -97 -135 -146 -162 -27 -14
-36 -27 -41 -54 -10 -62 -14 -69 -49 -80 -51 -17 -111 -15 -141 5 -15 9 -24
12 -20 7 20 -33 -130 -11 -162 23 -12 14 -17 21 -11 16 6 -5 17 -7 24 -5 6 3
18 -2 25 -11 7 -8 21 -15 32 -15 15 0 17 3 8 19 -25 48 5 84 70 84 16 0 27 5
23 10 -3 6 -1 7 5 3 7 -4 17 -4 24 0 21 13 -24 23 -116 23 -82 1 -92 -1 -125
-26 -25 -19 -31 -21 -21 -8 31 41 40 44 127 51 76 6 103 3 177 -16 l87 -23 44
21 c59 29 120 85 152 141 15 25 31 52 37 60 21 27 19 -15 -3 -63z m2258 -101
c-2 -39 -7 -59 -18 -65 -10 -6 -11 -10 -3 -10 6 0 12 -9 12 -21 0 -15 -5 -19
-15 -15 -8 3 -15 1 -15 -4 0 -6 5 -10 10 -10 6 0 10 -11 10 -25 0 -14 -4 -25
-10 -25 -5 0 -10 10 -10 23 0 18 -2 19 -10 7 -7 -11 -5 -19 8 -30 19 -17 24
-90 7 -102 -21 -16 -31 -7 -44 40 -8 26 -16 53 -19 60 -3 8 1 10 12 6 11 -4
16 -1 16 12 0 11 3 30 6 44 4 18 3 21 -4 12 -7 -10 -11 -4 -16 25 -4 21 -10
48 -13 60 -3 15 2 25 17 33 21 11 21 11 5 -14 -22 -33 -3 -34 23 -1 11 13 22
22 25 19 3 -3 8 4 12 15 11 36 16 23 14 -34z m-5073 -8 c-5 -28 -4 -30 8 -15
7 10 16 15 19 11 4 -3 7 -1 7 6 0 7 6 11 13 8 6 -2 19 -1 28 4 11 6 21 3 30
-7 11 -13 8 -19 -17 -39 -16 -14 -24 -24 -18 -25 5 0 16 6 23 13 10 10 11 9 5
-6 -5 -14 -2 -16 12 -10 18 6 18 5 -1 -17 -11 -13 -14 -20 -7 -16 20 12 50 -3
56 -30 4 -14 11 -22 17 -18 6 4 4 15 -6 30 -9 14 -13 30 -9 36 5 7 3 8 -5 3
-10 -5 -11 2 -7 30 9 52 19 65 27 35 6 -24 6 -24 16 10 9 32 10 30 10 -30 -1
-110 5 -151 20 -138 10 8 12 7 7 -6 -3 -9 -15 -16 -26 -16 -14 0 -18 -5 -14
-15 10 -26 -4 -46 -24 -35 -24 13 -33 13 -25 0 3 -5 0 -10 -8 -10 -8 0 -20 -7
-27 -15 -19 -22 -118 -12 -137 15 -8 11 -21 20 -29 20 -8 0 -13 4 -10 9 3 5
-2 15 -11 22 -22 19 -53 88 -52 119 0 22 1 23 12 8 7 -9 17 -24 22 -33 10 -16
12 -16 24 -1 12 14 12 16 -3 10 -30 -12 -16 7 17 22 l32 14 -40 -6 -40 -6 27
28 c27 27 28 27 41 10 9 -12 16 -15 20 -9 4 6 0 16 -8 23 -8 7 -15 19 -15 27
0 13 3 13 15 3 14 -11 14 -10 5 14 -9 25 -8 26 11 15 17 -9 20 -17 15 -42z
m-2094 -929 c26 -6 45 -15 42 -19 -2 -4 1 -11 7 -15 7 -4 9 -3 6 2 -3 6 -2 16
4 24 6 11 9 12 9 2 0 -7 5 -10 10 -7 16 10 80 -15 80 -31 0 -9 5 -12 10 -9 6
4 8 10 5 15 -9 14 36 3 188 -48 115 -38 136 -48 109 -50 -18 -2 -39 1 -45 6
-8 7 -20 6 -36 -2 -28 -16 -93 -3 -228 45 -83 30 -253 79 -280 81 -16 2 -16 5
-1 22 8 9 22 10 43 5 16 -4 51 -14 77 -21z m7648 -297 c0 -11 -297 -160 -330
-165 -14 -2 -38 -8 -55 -12 -26 -6 -28 -6 -15 7 30 27 311 163 353 170 23 3
43 7 45 8 1 0 2 -3 2 -8z m-206 -49 c2 -4 -55 -27 -127 -51 -179 -59 -290
-102 -303 -118 -6 -7 -23 -13 -36 -13 -14 0 -31 -7 -38 -15 -7 -8 -21 -15 -32
-15 -10 0 -16 -4 -13 -10 3 -6 -1 -7 -10 -4 -12 5 -6 13 27 31 24 14 51 31 60
40 9 8 22 12 28 8 7 -4 10 0 8 10 -3 19 -8 17 212 96 126 45 212 60 224 41z
m-579 -197 c0 -5 -36 -22 -79 -38 -60 -20 -81 -24 -87 -15 -6 9 -11 9 -24 -2
-9 -8 -37 -16 -62 -18 -28 -2 -75 -19 -121 -43 -81 -42 -102 -48 -81 -22 13
15 12 15 -11 3 -24 -13 -24 -12 -10 5 29 36 131 75 195 76 42 0 86 10 145 33
85 32 135 40 135 21z m-160 -492 c-65 -98 -102 -212 -84 -259 3 -10 2 -24 -3
-31 -13 -16 0 -39 14 -25 7 7 22 0 47 -24 20 -18 45 -34 55 -34 10 0 25 -8 32
-17 8 -11 13 -13 14 -5 0 6 4 12 9 12 5 0 8 -8 6 -17 -2 -10 -4 -21 -4 -25 -1
-4 -8 -5 -16 -2 -8 4 -15 2 -15 -4 0 -5 12 -13 26 -16 15 -4 33 -13 40 -21 8
-8 21 -12 28 -9 18 7 49 -25 42 -43 -4 -8 -1 -11 5 -7 6 3 22 1 35 -7 24 -12
28 -37 9 -51 -6 -5 -4 -12 5 -18 8 -5 10 -10 4 -10 -7 0 -14 -7 -18 -15 -6
-16 14 -16 26 0 5 6 8 3 8 -7 0 -9 -5 -20 -11 -23 -14 -9 -1 -67 19 -82 16
-13 11 -17 -20 -14 -10 1 -18 -4 -18 -13 0 -9 -4 -16 -10 -16 -5 0 -10 -5 -10
-10 0 -6 -7 -22 -16 -36 -16 -23 -18 -24 -35 -8 -17 16 -18 15 -14 -4 3 -19
-1 -21 -31 -20 -19 1 -34 6 -34 11 0 5 -6 5 -13 -1 -18 -15 -59 12 -51 33 4 8
1 15 -6 15 -6 0 -8 -4 -5 -10 3 -5 0 -10 -7 -11 -10 0 -11 -2 0 -6 10 -4 10
-8 1 -19 -17 -20 -37 -17 -50 9 -6 12 -20 30 -30 40 -18 17 -19 17 -16 0 1
-10 -2 -20 -8 -21 -5 -2 -19 -9 -30 -15 -36 -20 -40 -16 -43 46 -2 33 -5 83
-7 111 -3 34 -1 46 5 36 6 -9 10 -10 10 -3 0 6 -7 18 -15 26 -8 8 -12 17 -9
20 3 3 6 27 5 54 0 79 33 252 67 343 29 77 121 244 130 235 3 -2 -3 -17 -13
-32z m-688 -1010 c30 -17 92 -83 78 -83 -4 0 -3 -6 3 -13 13 -15 5 -75 -11
-96 -9 -11 -9 -13 0 -8 15 10 -33 -77 -52 -93 -8 -7 -12 -16 -9 -21 3 -5 -2
-6 -11 -3 -8 4 -25 0 -38 -8 -15 -9 -39 -12 -74 -8 -45 5 -58 11 -88 44 -19
21 -35 44 -36 50 -3 51 -9 79 -20 93 -8 9 -9 14 -3 10 14 -8 48 69 38 85 -5 7
-2 8 6 3 10 -6 12 -4 7 9 -4 10 -3 15 4 11 5 -4 21 0 33 9 20 12 84 30 131 35
6 0 24 -7 42 -16z m-5961 -230 c-19 -5 -18 -6 3 -18 21 -10 12 -13 -70 -19
-52 -4 -164 -16 -249 -27 -277 -36 -304 -39 -353 -37 -26 1 -50 5 -52 8 -8 14
71 40 115 39 25 -1 122 8 215 20 263 33 452 49 391 34z m6093 -268 c52 -46 70
-165 31 -200 -14 -13 -20 -14 -20 -5 0 9 -6 8 -20 -5 -18 -16 -22 -17 -37 -2
-10 8 -29 17 -43 19 -21 2 -26 10 -31 46 -5 41 -38 98 -66 115 -7 4 -13 14
-13 21 0 34 165 43 199 11z m-313 -64 c9 0 14 -7 11 -14 -3 -8 0 -14 6 -14 7
0 20 -4 30 -8 12 -5 17 -3 17 8 0 8 8 14 18 13 22 -1 45 -33 38 -51 -3 -8 -1
-17 4 -20 5 -3 6 -13 3 -22 -5 -14 -8 -13 -14 5 -11 29 -27 28 -31 0 -2 -15
-11 -24 -26 -26 -15 -2 -22 -9 -18 -17 2 -7 -2 -19 -10 -25 -16 -14 -19 -46
-4 -55 6 -4 8 -11 5 -16 -4 -5 0 -9 7 -10 7 0 4 -4 -7 -8 -13 -5 -32 -1 -55
12 -41 23 -59 45 -60 72 -1 24 -19 49 -41 57 -25 10 -29 55 -8 81 18 21 18 21
19 2 1 -11 4 -14 7 -8 2 7 3 15 1 17 -2 3 5 11 15 18 15 12 37 14 93 9z m2037
-227 c20 -3 37 -11 37 -16 0 -6 6 -6 14 1 9 8 15 8 18 1 1 -5 38 -16 81 -24
43 -7 80 -16 83 -19 17 -16 -56 -17 -144 -2 -91 16 -102 16 -161 1 -34 -9 -75
-16 -89 -16 -22 0 -18 -4 25 -24 29 -14 68 -36 88 -49 60 -41 16 -39 -70 4
-75 37 -123 50 -110 29 3 -5 -3 -10 -15 -10 -12 0 -19 4 -16 9 3 4 -7 6 -22 3
-15 -3 -23 -1 -19 4 4 4 15 9 23 10 9 1 23 5 32 9 15 6 15 8 -4 23 -20 17 -18
17 46 14 37 -2 93 2 126 9 l59 14 -45 3 c-25 2 -49 8 -55 14 -7 8 -6 9 3 4 6
-4 12 -3 12 3 0 11 28 20 50 15 8 -1 32 -6 53 -10z m-6402 -577 c50 -6 85 -32
108 -80 31 -66 30 -118 -2 -161 -28 -36 -89 -73 -137 -83 -49 -10 -92 -8 -102
4 -6 7 -16 13 -22 13 -6 1 -23 11 -37 23 -20 16 -28 34 -31 69 -3 26 -3 50 0
53 3 3 7 14 9 25 1 11 4 25 5 32 2 7 21 32 44 56 37 40 89 64 119 56 6 -2 26
-5 46 -7z m91 -339 c-4 -18 -2 -20 14 -14 42 18 54 18 54 3 0 -9 -4 -18 -10
-22 -11 -7 -2 -35 11 -35 5 0 15 11 21 25 13 30 28 33 28 6 0 -14 5 -18 20
-14 15 4 19 11 15 24 -4 10 -2 26 3 34 7 14 14 10 45 -24 33 -36 35 -44 31
-88 -5 -60 -45 -119 -99 -148 -36 -18 -45 -19 -87 -9 -61 16 -86 30 -117 67
-47 55 -60 107 -36 143 11 17 84 65 112 74 0 0 -1 -10 -5 -22z"/>
<path d="M4340 6920 c0 -6 -4 -9 -9 -6 -19 12 -100 -119 -83 -136 25 -25 132
-3 234 48 63 32 176 74 205 76 13 2 22 7 20 13 -5 14 -367 19 -367 5z"/>
<path d="M5140 6915 c8 -9 11 -30 7 -55 -3 -22 -2 -38 3 -35 14 9 56 -33 74
-74 28 -61 43 -60 51 4 6 46 4 60 -14 87 l-22 33 6 -50 c4 -34 3 -47 -4 -40
-6 6 -12 22 -13 35 -2 14 -11 34 -20 44 -21 23 -22 32 -6 42 6 4 8 3 5 -3 -4
-6 0 -16 8 -23 12 -10 15 -10 16 1 0 8 2 22 4 32 3 14 -5 17 -52 17 -48 0 -54
-2 -43 -15z"/>
<path d="M5748 6922 c-10 -2 -18 -10 -18 -18 0 -9 5 -12 11 -8 6 3 24 -3 40
-15 15 -11 35 -21 44 -21 23 0 18 -18 -7 -26 -29 -8 -40 -25 -27 -40 5 -7 6
-33 2 -65 -5 -29 -4 -86 1 -126 9 -69 11 -73 34 -73 67 0 212 123 212 181 0
12 -92 5 -114 -8 -22 -14 -33 -10 -32 11 1 11 8 21 16 21 8 0 39 8 67 18 29
10 57 16 63 12 14 -9 13 4 -6 59 -19 56 -41 72 -111 81 -43 6 -54 4 -59 -9 -3
-9 -11 -16 -16 -16 -6 0 -5 6 2 15 11 13 8 15 -13 15 -14 0 -36 4 -49 8 -13 5
-31 7 -40 4z"/>
<path d="M6045 6913 c23 -22 35 -56 49 -138 15 -86 3 -131 -52 -196 -23 -27
-32 -44 -24 -47 22 -7 12 -22 -11 -17 -15 4 -39 -3 -67 -19 -24 -14 -48 -22
-52 -20 -12 7 -88 -6 -88 -15 0 -4 11 -8 25 -9 14 -1 42 -9 62 -17 24 -10 39
-12 41 -6 2 6 12 21 22 33 l19 23 70 -70 c74 -72 79 -75 59 -28 -6 15 -11 31
-10 36 1 4 -4 7 -12 7 -12 0 -14 13 -12 58 4 69 10 86 51 137 47 59 55 77 64
154 12 92 -2 151 -34 151 -14 0 -25 -7 -28 -20 -3 -11 -2 -18 3 -15 4 3 13 -2
20 -10 10 -12 9 -15 -5 -15 -14 0 -16 -6 -11 -31 5 -28 4 -30 -10 -18 -9 7
-15 26 -14 48 3 59 2 61 -36 61 -33 0 -34 -1 -19 -17z"/>
<path d="M4961 6886 c-7 -8 -22 -12 -34 -9 -15 3 3 -18 53 -65 41 -38 78 -68
83 -65 4 2 7 -1 7 -6 0 -11 10 -22 64 -71 26 -23 26 -21 -8 30 -19 30 -43 64
-52 74 -15 17 -15 19 -1 13 8 -3 21 1 27 9 10 12 8 14 -16 15 -16 1 -40 1 -54
0 -19 -2 -22 0 -11 8 12 8 12 12 2 25 -12 14 -10 16 17 16 21 0 31 6 35 20 5
18 0 20 -48 20 -33 0 -57 -5 -64 -14z"/>
<path d="M8863 6675 c-7 -8 -13 -19 -13 -24 0 -16 -38 -23 -60 -11 -12 7 -24
10 -26 7 -9 -9 27 -37 47 -37 11 0 30 -5 42 -11 18 -9 20 -9 10 2 -16 16 -17
29 -2 29 5 0 7 -4 4 -10 -3 -5 -1 -10 5 -10 17 0 29 -43 17 -60 -9 -12 -8 -13
2 -4 9 8 25 9 54 2 59 -13 59 -19 1 -14 -27 2 -41 2 -31 -1 9 -2 17 -8 17 -13
0 -5 -7 -7 -16 -3 -11 4 -15 2 -12 -7 7 -22 24 -22 34 -1 9 20 10 20 49 -7 22
-15 42 -31 44 -37 2 -5 5 -15 8 -21 2 -6 24 -11 49 -11 43 0 44 0 27 19 -17
19 -26 61 -11 52 14 -9 8 23 -7 36 -8 7 -15 20 -15 28 0 12 -3 13 -11 5 -9 -9
-8 -16 5 -28 23 -23 20 -32 -4 -10 -11 10 -30 23 -43 30 -12 6 -21 19 -19 28
2 9 -2 17 -7 17 -6 0 -8 7 -5 15 4 8 1 15 -5 15 -6 0 -11 6 -11 14 0 8 -7 17
-16 20 -25 10 -29 7 -10 -7 9 -7 19 -25 20 -40 2 -15 11 -36 21 -47 17 -19 17
-20 -3 -20 -12 0 -26 9 -32 20 -6 11 -16 18 -22 14 -6 -4 -9 -1 -6 7 3 8 11
13 18 11 16 -4 -2 20 -40 55 -29 26 -31 27 -47 8z"/>
<path d="M5578 6528 c-22 -18 -35 -128 -15 -128 9 0 12 -9 9 -30 -2 -16 -8
-30 -12 -30 -15 0 -21 -33 -8 -42 23 -14 93 -9 118 9 33 23 49 44 43 59 -2 7
3 24 12 38 16 24 16 26 1 26 -9 0 -27 -6 -39 -14 -12 -8 -40 -17 -62 -20 -35
-6 -37 -5 -15 5 14 6 32 14 40 19 19 9 25 72 10 100 -12 23 -57 27 -82 8z"/>
<path d="M1 6427 c1 -72 5 -94 14 -91 27 11 331 -163 352 -200 6 -11 26 -16
63 -17 30 -1 61 -6 68 -12 6 -5 12 -6 12 -3 0 19 -165 146 -189 146 -6 0 -11
4 -11 9 0 4 -25 25 -56 46 -32 20 -54 31 -51 23 3 -9 -1 -15 -9 -15 -8 0 -12
7 -9 16 3 11 -28 46 -91 105 l-95 89 2 -96z"/>
<path d="M0 6242 c0 -65 2 -70 27 -83 43 -21 49 -22 36 -8 -14 14 -17 57 -5
76 4 7 26 15 49 19 33 5 45 2 60 -13 11 -11 32 -23 46 -27 14 -3 32 -12 39
-19 18 -19 59 -40 64 -34 8 7 -125 93 -197 127 -35 16 -76 30 -91 30 -28 0
-28 0 -28 -68z"/>
<path d="M0 6137 c0 -9 5 -19 10 -22 6 -4 7 -11 4 -17 -8 -12 14 -28 40 -28
10 0 24 -7 30 -15 11 -16 128 -45 180 -45 l30 0 -29 30 c-20 20 -35 28 -47 24
-11 -3 -31 2 -46 13 -15 10 -52 27 -82 39 -30 12 -63 25 -72 29 -13 5 -18 3
-18 -8z"/>
<path d="M850 5995 c1 -11 1 -23 0 -27 -1 -5 -3 -11 -5 -15 -8 -30 -18 -41
-33 -36 -13 6 -13 8 4 14 13 6 7 7 -18 5 -21 -2 -35 1 -32 5 3 5 0 9 -7 9 -7
0 -25 12 -40 26 l-27 26 31 -85 c18 -47 35 -83 39 -81 3 2 19 -6 35 -19 15
-13 40 -30 55 -40 14 -9 29 -25 33 -36 10 -32 56 -34 88 -3 34 32 36 56 5 47
-21 -7 -22 -6 -5 7 17 13 17 14 -3 35 -11 12 -20 28 -20 36 0 7 -5 18 -11 24
-7 7 -6 15 5 26 16 16 16 16 -82 91 -11 8 -13 5 -12 -9z"/>
<path d="M10038 5385 c-114 -75 -188 -131 -188 -140 0 -10 -5 -13 -12 -9 -7 4
-8 3 -4 -4 9 -14 -23 -64 -36 -56 -5 3 -18 -2 -28 -11 -17 -15 -19 -15 -29 2
-10 17 -10 16 -11 -4 0 -13 -4 -23 -10 -23 -5 0 -10 -7 -10 -15 0 -18 -21 -20
-38 -3 -8 8 -105 -51 -396 -243 -212 -140 -385 -260 -385 -267 -1 -8 4 -10 12
-6 6 4 9 3 4 -1 -4 -5 -23 -10 -42 -12 -34 -2 -185 -89 -185 -105 0 -5 25 -8
56 -8 39 0 53 -3 48 -12 -4 -7 -3 -8 4 -4 17 10 101 -4 117 -20 7 -8 19 -14
27 -14 20 0 248 141 248 154 0 6 -4 4 -10 -4 -8 -12 -10 -12 -15 2 -4 9 -12
15 -19 12 -17 -7 -21 81 -4 95 66 56 74 61 64 35 -5 -14 -4 -15 9 -4 12 10 18
10 30 0 8 -7 15 -8 15 -3 0 19 49 7 68 -17 l21 -25 45 25 c26 13 45 29 43 35
-2 5 17 17 42 26 25 9 91 43 146 76 55 33 218 124 363 202 l262 144 0 163 c0
90 -3 164 -7 163 -5 0 -92 -56 -195 -124z"/>
<path d="M10125 4969 c-60 -33 -208 -115 -327 -181 -161 -88 -218 -124 -218
-138 0 -12 -10 -20 -32 -24 -18 -3 -44 -8 -58 -11 -13 -3 -114 -48 -225 -102
-110 -53 -210 -102 -222 -107 -13 -6 -23 -14 -23 -17 0 -9 215 -18 325 -13
291 13 586 80 813 185 l82 38 0 215 c0 119 -1 216 -2 216 -2 0 -52 -28 -113
-61z"/>
<path d="M540 4821 l-35 -7 34 -7 c18 -4 48 -7 66 -7 30 0 33 -2 31 -30 -1
-23 -9 -34 -30 -45 -31 -17 -45 -13 -28 7 7 9 6 16 -3 25 -9 9 -15 3 -23 -25
-6 -20 -10 -36 -9 -36 13 -4 42 -25 45 -34 2 -7 -15 -10 -52 -9 -48 2 -55 0
-51 -14 4 -12 -2 -19 -19 -23 -13 -3 -38 -17 -54 -31 -21 -18 -37 -23 -58 -19
-16 3 -37 6 -46 7 -10 1 -18 4 -18 7 0 3 -11 18 -25 34 -23 27 -24 30 -7 42
24 19 48 17 70 -6 18 -19 18 -19 55 6 l37 25 -26 40 c-17 28 -24 49 -20 65 5
19 3 22 -11 17 -10 -3 -28 -15 -40 -25 -14 -13 -28 -18 -42 -13 -27 8 -100
-60 -82 -78 18 -18 13 -36 -9 -30 -12 3 -20 14 -20 25 0 17 -3 18 -15 8 -11
-9 -12 -16 -2 -31 6 -10 19 -19 28 -19 15 0 31 -20 34 -45 1 -5 6 -18 10 -29
5 -11 4 -26 -3 -37 -9 -13 -8 -19 1 -22 9 -4 9 -6 -1 -6 -16 -1 -33 43 -26 64
4 9 -3 24 -17 36 -22 19 -24 19 -30 2 -5 -15 -10 -11 -30 22 -20 34 -24 37
-27 19 -2 -12 -23 -36 -48 -53 -34 -25 -44 -39 -44 -60 0 -32 25 -61 32 -39 4
10 8 10 21 -1 9 -7 23 -11 30 -8 20 8 41 -9 34 -27 -4 -9 -17 -16 -29 -17 -22
-1 -22 -1 2 -8 25 -7 30 -28 15 -63 -7 -17 -5 -17 29 -3 19 8 44 15 55 15 11
0 25 8 30 19 6 10 24 21 41 25 17 3 29 10 26 14 -7 12 38 54 47 45 13 -13 7
-52 -10 -62 -29 -17 4 -13 82 9 73 20 115 39 126 54 4 5 12 7 19 4 8 -2 0 -20
-22 -48 -26 -34 -41 -44 -59 -42 -41 5 -52 -5 -35 -30 23 -32 20 -45 -14 -79
-25 -26 -34 -29 -65 -23 -20 3 -35 12 -35 20 0 8 -10 18 -23 23 -12 5 -30 19
-40 31 l-18 21 -29 -31 c-17 -18 -30 -40 -30 -51 0 -10 -8 -23 -17 -28 -17
-10 -17 -10 0 -11 18 0 22 -17 9 -37 -4 -6 -20 -13 -36 -15 -38 -4 -45 -25
-12 -38 14 -5 26 -14 26 -19 0 -5 12 -12 26 -15 18 -5 24 -11 20 -23 -5 -11
-2 -13 11 -8 10 4 28 7 41 6 18 -1 27 10 46 53 28 63 50 75 77 44 10 -13 18
-26 19 -30 0 -5 4 -8 10 -8 5 0 7 12 4 28 -4 19 0 32 13 44 26 23 60 31 69 16
12 -19 12 -130 0 -118 -6 6 -16 4 -27 -6 -14 -13 -16 -20 -7 -40 13 -27 4 -44
-14 -26 -7 7 -21 12 -31 12 -16 0 -17 -2 -7 -16 8 -8 9 -14 4 -13 -24 4 -34
-3 -34 -23 0 -19 2 -20 10 -8 8 13 11 11 16 -7 4 -13 13 -23 20 -23 8 0 14 -6
14 -13 0 -20 -33 -47 -57 -47 -20 0 -73 51 -73 71 0 5 -7 9 -15 9 -14 0 -14
-4 0 -31 19 -36 13 -62 -11 -52 -15 6 -16 1 -11 -40 4 -29 3 -47 -3 -47 -6 0
-10 5 -10 10 0 6 -12 10 -26 10 -28 0 -28 -5 -9 -67 6 -17 1 -25 -25 -38 -41
-21 -85 -7 -75 24 4 14 0 20 -20 23 -19 4 -25 1 -25 -12 0 -23 -26 -33 -51
-20 -18 10 -19 6 -19 -93 l0 -104 25 5 c20 3 27 -1 35 -22 6 -16 17 -26 30
-26 23 0 24 3 8 29 -9 15 -9 23 1 35 16 19 61 21 61 3 0 -7 9 -18 21 -25 13
-9 18 -19 14 -32 -6 -19 26 -46 39 -33 9 10 7 -6 -4 -26 -5 -10 -23 -21 -40
-24 -28 -6 -30 -10 -30 -50 0 -52 -6 -60 -34 -45 -11 7 -30 12 -41 12 -14 1
-21 11 -27 39 -4 21 -15 52 -24 70 -10 17 -20 43 -24 57 -4 14 -8 -152 -9
-367 0 -306 2 -393 12 -393 8 0 7 -4 -3 -10 -11 -7 -12 -10 -2 -10 19 0 42 26
42 47 0 10 -7 45 -15 77 -12 44 -13 62 -4 72 6 8 8 14 5 14 -4 0 -2 9 4 21 7
12 18 18 26 15 16 -6 20 29 4 39 -15 9 1 128 19 142 13 11 14 14 2 22 -9 5
-12 18 -8 32 3 13 2 28 -4 35 -7 8 -7 14 1 19 5 3 10 0 10 -7 1 -8 9 -4 19 10
20 23 55 30 66 12 3 -5 2 -10 -3 -10 -6 0 -13 -7 -16 -16 -11 -28 0 -26 19 2
11 17 13 30 7 36 -13 13 -4 45 14 52 8 3 17 -1 20 -9 5 -12 10 -10 26 10 23
29 67 34 70 8 0 -10 2 -23 2 -30 1 -6 5 -15 9 -19 4 -4 0 -15 -8 -24 -14 -16
-14 -22 1 -60 14 -35 15 -46 5 -63 -10 -16 -10 -21 0 -28 20 -12 36 7 42 49 3
20 12 57 21 82 9 25 18 57 21 72 7 39 67 98 98 98 15 0 35 10 47 22 24 26 36
19 20 -12 -10 -18 -8 -25 9 -41 26 -24 26 -54 2 -122 -12 -37 -15 -60 -9 -77
5 -13 5 -26 0 -29 -4 -3 -19 -21 -31 -40 -24 -33 -24 -33 -2 -26 33 10 25 -15
-9 -28 -39 -15 -41 -39 -2 -31 24 5 62 9 100 13 10 1 10 6 2 21 -6 12 -10 38
-8 58 3 34 8 39 57 65 30 15 68 27 84 27 22 0 28 4 23 16 -3 9 -6 20 -6 25 0
5 -7 9 -15 9 -7 0 -18 6 -22 13 -4 6 -20 18 -36 26 -18 10 -25 20 -22 31 3 11
-4 19 -25 27 -20 8 -30 18 -30 32 0 24 22 28 39 7 16 -20 58 1 64 32 10 53 -6
67 -70 65 -7 0 -12 2 -11 6 3 16 -15 61 -26 61 -16 0 -76 58 -76 74 0 17 35
48 43 39 10 -9 36 28 30 43 -2 7 0 15 6 19 6 3 11 11 11 16 0 6 -14 -1 -31
-15 -26 -22 -37 -25 -68 -20 -42 8 -60 28 -61 65 0 48 97 100 138 75 8 -5 18
-4 25 3 6 6 14 11 18 11 6 0 16 -49 24 -114 3 -25 46 -75 67 -76 13 0 20 62
13 119 -5 47 -4 59 9 64 8 3 16 2 18 -3 2 -4 29 -4 60 1 34 6 74 6 98 0 38 -8
40 -8 40 15 0 13 0 27 1 31 0 4 -4 9 -10 11 -6 2 -8 -3 -5 -11 3 -8 0 -18 -6
-22 -15 -9 -80 53 -80 75 0 13 -11 17 -46 19 -42 1 -46 -1 -41 -19 3 -10 0
-18 -5 -17 -5 1 -14 -9 -19 -22 -7 -19 -6 -22 6 -18 8 4 17 2 20 -3 7 -12 -39
-24 -66 -17 -12 3 -22 0 -26 -9 -8 -21 -26 -17 -20 5 4 16 1 17 -23 8 -22 -8
-33 -7 -54 7 -35 22 -61 77 -52 110 9 35 67 59 124 51 39 -6 42 -5 41 17 0 13
-3 17 -6 11 -8 -22 -31 -14 -72 23 -43 38 -45 64 -6 64 12 0 34 -9 48 -20 l26
-21 11 21 c9 17 8 20 -11 20 -11 0 -32 9 -45 19 -35 28 -75 15 -86 -27 -14
-54 -58 -35 -58 25 0 23 -5 33 -15 33 -20 0 -19 19 2 42 11 12 16 35 16 71 -1
45 0 49 9 25 5 -16 14 -28 18 -28 5 0 20 -11 34 -24 26 -24 35 -56 15 -56 -6
0 -9 -6 -6 -12 4 -15 27 -18 26 -4 0 5 5 13 13 18 11 8 11 10 0 15 -10 4 -6
13 14 34 15 16 23 29 16 29 -6 0 -14 -5 -18 -11 -4 -8 -12 -3 -21 12 -14 24
-14 24 -10 2 7 -31 -9 -29 -29 5 -9 15 -25 39 -35 54 -18 26 -18 27 1 33 11 4
20 13 20 21 0 8 8 14 18 14 16 1 16 1 0 14 -10 7 -18 18 -18 25 0 6 -11 11
-24 11 -13 0 -30 8 -37 18 -12 15 -12 16 1 6 17 -13 50 -15 50 -3 0 15 75 79
93 79 22 0 23 37 2 67 -14 20 -14 23 2 31 14 8 15 13 4 26 -11 13 -8 16 21 24
22 6 35 5 40 -2 6 -8 8 -8 8 0 0 7 12 15 28 19 l27 8 -25 7 c-30 10 -181 10
-230 1z m-210 -1023 c0 -12 3 -19 6 -15 4 3 26 -7 50 -24 45 -30 53 -53 35
-88 -8 -15 -6 -17 19 -13 15 2 36 -1 47 -7 15 -9 16 -10 2 -11 -27 0 -35 -70
-8 -70 5 0 9 -9 9 -20 0 -11 -5 -20 -11 -20 -6 0 -8 7 -5 17 4 10 4 14 0 11
-4 -4 -16 -2 -28 4 -21 11 -21 11 -2 -11 11 -11 16 -21 11 -21 -14 0 -75 42
-75 51 0 6 -4 8 -9 5 -9 -6 -121 39 -121 49 0 2 9 19 20 37 13 22 20 51 20 84
0 28 3 54 7 57 14 15 33 6 33 -15z m-19 -219 c70 -22 89 -32 89 -44 0 -8 6
-16 13 -18 6 -3 -3 -11 -20 -18 -49 -20 -44 -43 7 -36 22 3 40 2 40 -1 0 -15
-47 -72 -73 -87 -47 -28 -61 5 -44 104 7 41 6 45 -28 77 -39 37 -37 40 16 23z"/>
<path d="M830 4765 c0 -7 10 -24 21 -39 15 -20 25 -24 32 -17 17 17 77 14 77
-3 0 -8 -4 -17 -10 -21 -5 -3 -7 -11 -5 -18 3 -7 -2 -21 -11 -32 -14 -19 -16
-19 -28 -2 -16 21 -27 22 -20 2 7 -16 -41 -65 -63 -65 -8 0 -12 -6 -9 -12 3
-7 9 -20 12 -30 3 -9 15 -19 26 -21 13 -4 19 -11 15 -20 -9 -24 5 -29 25 -10
15 13 21 14 27 5 4 -7 14 -12 21 -10 8 2 19 -11 25 -29 10 -30 12 -31 23 -13
6 10 8 21 3 24 -4 3 -8 19 -9 37 0 19 -8 37 -21 46 -29 20 -27 43 4 43 22 0
24 2 14 26 -5 15 -8 29 -5 31 14 14 70 -14 105 -52 33 -36 40 -49 35 -72 -4
-23 0 -31 25 -48 l29 -19 -24 -29 c-23 -27 -23 -29 -6 -52 21 -28 78 -38 107
-18 11 7 20 17 20 21 0 15 30 37 50 37 11 0 20 5 20 12 0 6 4 15 9 20 5 4 6 3
2 -4 -4 -7 3 -14 16 -19 22 -7 22 -7 -7 -30 -21 -17 -25 -24 -14 -24 20 0 42
-25 44 -50 1 -15 -2 -17 -16 -9 -25 13 -32 11 -26 -5 3 -8 -1 -22 -8 -33 -19
-25 -18 -30 6 -36 12 -3 19 -12 17 -19 -6 -18 -39 -23 -49 -7 -6 10 -11 10
-22 1 -8 -7 -21 -10 -29 -7 -8 3 -21 -1 -28 -10 -19 -23 -42 0 -33 33 6 24 4
25 -26 19 -25 -5 -31 -3 -31 11 0 10 6 27 14 38 14 20 14 20 -30 14 -48 -7
-80 -29 -56 -37 10 -4 8 -9 -5 -19 -17 -12 -16 -13 8 -14 15 0 33 -7 40 -17
13 -15 11 -16 -13 -10 -14 4 -34 10 -45 14 -16 6 -16 5 -4 -10 12 -15 11 -17
-3 -17 -10 0 -16 -9 -16 -25 0 -14 5 -25 10 -25 6 0 10 4 10 9 0 14 32 23 43
12 7 -7 4 -18 -6 -34 -15 -23 -15 -26 9 -48 13 -12 24 -25 24 -29 0 -3 -16
-24 -35 -46 -43 -48 -29 -57 22 -15 21 17 43 31 50 31 15 0 17 16 3 25 -6 4
-8 10 -5 15 3 4 -2 13 -10 20 -16 14 -20 56 -6 64 13 8 64 -62 57 -79 -2 -7 6
-20 18 -29 13 -8 34 -31 46 -50 12 -20 29 -36 39 -36 21 0 81 -60 81 -81 0 -8
-8 -25 -17 -39 -12 -17 -13 -25 -5 -28 17 -5 15 -37 -3 -52 -8 -7 -26 -9 -44
-5 -19 4 -41 1 -60 -9 -16 -9 -39 -16 -51 -16 -12 0 -18 -4 -15 -10 3 -5 26
-10 51 -10 52 0 64 -16 44 -58 -8 -15 -15 -41 -16 -58 -2 -27 2 -33 33 -48 23
-11 46 -15 64 -11 20 5 29 3 29 -6 0 -7 8 -3 18 8 22 25 57 34 87 23 13 -5 25
-6 28 -2 2 4 3 2 1 -4 -1 -6 11 -21 27 -33 16 -12 29 -28 29 -37 0 -8 4 -13 9
-9 5 3 12 1 16 -5 3 -5 -2 -10 -12 -11 -10 0 -13 -3 -6 -6 9 -3 9 -10 3 -24
-6 -10 -15 -28 -20 -39 -10 -21 -11 -20 39 -24 8 -1 17 -8 19 -16 3 -8 9 -18
14 -21 17 -11 18 -52 1 -64 -11 -8 -17 -27 -17 -53 -1 -39 -2 -40 -28 -35 -36
7 -36 -6 2 -37 36 -31 51 -90 22 -90 -11 0 -38 14 -60 30 -23 17 -46 30 -52
30 -6 0 -19 6 -30 12 -16 11 -22 9 -33 -7 -14 -18 -15 -18 -45 6 -16 13 -32
32 -35 42 -3 11 -13 16 -28 15 -20 -3 -23 1 -24 34 0 20 5 36 10 35 6 -1 9 10
7 26 -4 38 14 34 29 -7 13 -35 39 -40 39 -7 0 9 5 22 10 27 10 10 -39 126 -58
138 -6 3 -9 19 -8 35 2 28 1 29 -33 24 -47 -8 -48 -9 -28 -45 19 -34 15 -48
-15 -48 -13 0 -18 -5 -15 -14 9 -22 -3 -26 -34 -11 -45 24 -60 20 -48 -12 18
-47 29 -56 50 -37 17 15 19 15 25 1 3 -8 1 -24 -5 -35 -9 -16 -18 -19 -50 -15
-25 3 -41 1 -46 -7 -5 -9 -4 -11 3 -6 19 12 14 -10 -7 -28 -24 -22 -44 -12
-35 16 3 11 7 31 9 45 2 22 0 23 -29 17 -40 -8 -42 -10 -26 -29 16 -20 6 -45
-20 -45 -28 0 -25 -12 10 -32 26 -15 29 -21 24 -47 -4 -20 -2 -31 5 -31 6 0
10 5 9 12 -2 6 5 14 15 16 29 6 67 -7 67 -23 0 -21 24 -19 45 5 25 27 32 25
40 -11 4 -19 16 -34 31 -39 13 -5 24 -14 24 -20 0 -5 13 -7 31 -3 l31 6 -3
-44 c-3 -37 0 -44 14 -43 14 2 15 -1 6 -12 -14 -17 2 -18 21 -1 8 6 4 0 -8
-14 -17 -20 -20 -29 -11 -34 8 -6 7 -10 -5 -17 -13 -7 -14 -12 -3 -28 6 -11
17 -20 24 -20 17 0 17 -27 0 -37 -8 -4 -16 -16 -20 -25 -3 -10 -13 -18 -20
-18 -18 0 -72 60 -124 139 -35 52 -43 59 -43 40 0 -13 -7 -33 -15 -43 -21 -28
-20 -31 28 -59 23 -14 68 -53 101 -86 l58 -61 -33 6 c-19 4 -51 17 -71 30 -21
13 -63 35 -93 49 -53 23 -57 23 -73 7 -23 -24 -27 -52 -7 -52 9 0 15 -6 12
-12 -2 -7 -11 -11 -18 -9 -8 2 -35 3 -61 2 -41 -2 -47 0 -41 15 5 14 3 16 -11
11 -10 -4 -25 -7 -34 -7 -36 0 7 -19 80 -34 77 -17 98 -28 77 -41 -15 -10
-250 16 -243 26 3 5 -2 9 -10 9 -19 0 -10 -26 12 -36 9 -4 28 -6 42 -6 23 2
23 1 5 -7 -17 -8 -16 -10 10 -10 17 -1 36 -6 41 -11 8 -8 20 -7 39 0 22 8 30
8 36 -2 6 -9 1 -14 -16 -16 -14 -2 -23 -8 -20 -13 4 -5 2 -9 -4 -9 -5 0 -13 5
-16 10 -4 6 -15 8 -24 5 -10 -3 -24 1 -31 10 -7 8 -22 15 -33 15 -11 0 -29 8
-40 18 -11 9 -17 11 -13 4 6 -9 1 -15 -15 -19 -22 -6 -22 -7 -3 -14 16 -6 16
-8 2 -8 -10 -1 -22 -10 -28 -21 -7 -14 -20 -20 -43 -19 -18 0 -44 -2 -60 -6
-24 -7 -28 -4 -38 24 -7 20 -18 31 -30 31 -23 0 -26 37 -6 64 12 16 15 16 42
-10 19 -18 30 -23 33 -14 3 7 -1 16 -7 20 -7 4 -13 15 -13 26 -2 22 31 76 41
69 4 -2 20 16 35 40 16 24 31 44 35 43 3 0 15 0 26 1 17 1 18 3 5 11 -13 9
-12 13 5 28 23 20 26 30 30 134 l3 76 -43 -29 c-24 -16 -54 -29 -68 -29 -15 0
-30 -8 -36 -17 -14 -26 -151 -26 -179 0 -19 17 -20 17 -26 -7 -4 -16 -16 -28
-30 -32 -13 -3 -26 -14 -29 -25 -7 -26 -34 -34 -63 -19 -40 22 -40 2 -1 -38
45 -46 48 -64 8 -56 -22 5 -32 1 -44 -16 -14 -21 -16 -21 -26 -3 -6 10 -11 13
-11 6 0 -6 5 -15 10 -18 15 -9 12 -42 -5 -59 -14 -13 -13 -16 4 -26 29 -15 31
-13 25 18 -8 37 33 82 75 82 16 0 37 3 47 7 12 4 15 3 10 -5 -5 -8 2 -12 22
-12 16 0 35 -7 42 -15 7 -8 22 -16 34 -16 11 -1 -1 -5 -28 -10 -51 -8 -87 -29
-50 -29 28 0 67 -55 58 -82 -4 -13 -2 -18 4 -14 16 10 26 -14 23 -57 -1 -25 2
-36 9 -32 5 3 10 14 10 23 0 12 3 13 12 4 10 -10 6 -18 -15 -39 -22 -22 -27
-24 -27 -10 0 9 -4 17 -10 17 -5 0 -9 -10 -7 -22 4 -38 -30 -34 -53 5 -15 26
-26 34 -40 30 -17 -5 -18 -7 -6 -25 8 -11 12 -27 9 -34 -7 -20 -23 -7 -17 14
5 14 4 14 -4 3 -13 -19 -2 -41 37 -73 15 -14 34 -35 41 -48 10 -18 14 -20 21
-9 5 8 9 10 9 4 0 -5 -4 -16 -9 -24 -10 -15 -27 -8 -99 42 -38 25 -42 26 -33
8 10 -17 9 -20 -4 -15 -8 4 -15 10 -15 16 0 21 -83 148 -97 148 -11 0 -13 -5
-7 -17 4 -10 8 -38 8 -62 0 -41 4 -46 58 -88 41 -31 70 -46 100 -49 23 -3 73
-16 112 -30 51 -18 88 -24 140 -23 39 1 60 4 46 6 -45 8 -49 26 -5 19 22 -3
54 -6 70 -6 20 0 26 -3 17 -9 -11 -7 -10 -10 3 -15 9 -3 25 -6 35 -6 21 0 170
48 185 59 10 8 88 34 135 44 14 4 41 22 60 40 l35 34 2 -25 c0 -14 -5 -32 -13
-40 -34 -33 1 -22 64 21 94 64 241 215 313 319 161 235 233 468 233 748 -1
291 -75 538 -236 786 -91 140 -291 325 -442 410 -46 26 -48 26 -42 6 6 -18 4
-20 -16 -17 -62 12 -76 17 -103 41 -24 20 -37 24 -77 21 -26 -2 -49 1 -50 5
-2 5 -20 13 -41 17 -27 7 -37 6 -37 -4z m730 -1039 c0 -8 -4 -18 -10 -21 -19
-12 -10 -26 16 -23 23 3 28 -2 39 -40 7 -23 19 -50 27 -59 12 -15 11 -15 -9
-4 -21 11 -23 9 -23 -13 0 -20 -4 -23 -22 -18 -29 7 -56 36 -60 64 -2 16 -9
22 -21 20 -16 -3 -18 1 -12 30 4 18 13 43 21 56 16 24 54 30 54 8z"/>
<path d="M1024 3698 c1 -19 -4 -23 -27 -20 -19 2 -26 -1 -22 -8 4 -6 1 -18 -7
-27 -7 -9 -13 -32 -13 -52 0 -35 -1 -36 -37 -35 -21 1 -38 -2 -38 -6 0 -8 44
-24 70 -24 18 -1 25 -32 11 -50 -5 -6 -8 -22 -4 -34 3 -12 2 -29 -1 -38 -5
-14 -9 -13 -25 7 -26 33 -33 21 -12 -21 16 -35 17 -70 1 -70 -4 0 -7 8 -6 18
2 26 -27 21 -41 -8 -7 -14 -18 -24 -24 -22 -32 8 -39 -7 -19 -43 24 -43 25
-49 5 -41 -29 11 -14 -9 18 -24 33 -16 50 -50 24 -50 -8 0 -18 -7 -21 -16 -9
-24 -8 -26 16 -19 16 6 26 1 39 -16 15 -20 19 -21 19 -7 0 12 5 15 18 11 16
-6 16 -5 1 13 -26 30 -30 66 -11 81 9 8 11 12 5 8 -9 -4 -13 1 -13 14 0 12 -5
21 -11 21 -12 0 -4 47 12 66 5 7 25 12 44 11 19 -1 38 2 41 6 4 4 -5 30 -21
59 -27 49 -27 52 -10 65 11 7 24 13 31 13 6 0 23 9 38 21 18 14 31 18 39 12 7
-6 23 -6 37 -2 14 4 20 7 13 8 -6 1 -20 15 -30 31 -9 17 -23 30 -30 30 -19 0
-16 37 4 49 13 7 14 13 6 23 -6 7 -16 30 -22 51 -14 42 -48 53 -47 15z"/>
<path d="M1287 1362 c-10 -10 -17 -33 -17 -51 0 -17 -7 -43 -16 -56 -9 -14
-13 -25 -9 -25 4 0 2 -6 -4 -13 -6 -8 -7 -17 -3 -21 4 -4 1 -6 -7 -4 -8 2 -18
-11 -26 -32 -10 -30 -17 -36 -51 -41 -30 -5 -32 -7 -11 -8 15 0 27 -4 27 -8 0
-5 13 -8 30 -9 16 -1 27 2 25 7 -3 4 4 5 15 2 23 -6 44 -38 35 -52 -3 -5 -23
-12 -45 -16 -55 -9 -57 -20 -5 -21 26 0 50 -7 60 -17 9 -10 21 -15 26 -12 5 4
9 2 9 -4 0 -6 6 -8 14 -5 7 3 44 -16 82 -43 37 -26 64 -41 60 -33 -4 8 0 6 9
-5 9 -11 35 -57 57 -102 23 -46 44 -83 48 -83 9 0 53 -80 47 -86 -3 -3 -14 8
-26 23 -11 15 -25 33 -31 40 -5 7 -10 19 -10 28 0 8 -6 15 -14 15 -8 0 -16 5
-18 12 -3 7 -10 8 -17 3 -9 -5 -12 -22 -8 -51 3 -27 0 -45 -7 -48 -6 -2 -3 -5
6 -5 9 -1 21 7 26 16 9 15 13 12 31 -18 24 -39 26 -60 9 -77 -15 -15 -2 -28
15 -14 10 9 17 5 31 -18 9 -17 22 -30 28 -30 6 0 8 -9 5 -20 -3 -13 0 -20 9
-20 8 0 13 -6 11 -12 -3 -16 40 -13 59 3 10 8 11 16 3 30 -5 11 -7 25 -3 31 4
6 -1 17 -11 24 -16 12 -21 11 -35 -1 -10 -9 -25 -13 -34 -9 -16 6 -16 8 0 25
9 10 21 16 27 12 6 -3 7 -1 3 5 -4 7 -2 12 5 12 7 0 5 8 -6 21 -15 16 -19 38
-21 106 -1 71 -4 87 -19 96 -13 7 -16 6 -11 -2 5 -7 -1 -11 -14 -11 -13 0 -24
8 -27 20 -3 11 -9 20 -13 20 -4 0 -10 9 -13 20 -4 17 0 20 33 20 22 0 41 -4
44 -9 3 -5 17 -11 32 -14 18 -3 22 -1 15 6 -6 6 -11 28 -11 48 0 38 -12 49
-50 49 -11 0 -31 11 -46 25 -15 14 -30 25 -33 25 -3 0 -28 21 -56 45 -44 40
-86 61 -70 36 3 -5 1 -12 -4 -16 -6 -3 -15 13 -21 37 -9 32 -14 38 -20 27 -6
-10 -3 -34 5 -63 13 -44 13 -47 -3 -44 -13 3 -16 12 -14 35 2 17 -2 34 -7 38
-6 3 -11 34 -11 68 1 61 1 61 16 35 22 -41 25 -34 7 18 -16 47 -33 45 -33 -3
0 -33 -16 -28 -30 10 -6 17 -15 39 -19 47 -4 8 -5 26 -1 40 4 19 14 26 40 30
l34 5 -26 18 c-33 21 -31 21 -51 -1z"/>
<path d="M8583 930 c-18 -16 -33 -34 -33 -40 0 -5 -4 -10 -9 -10 -5 0 -26 -33
-45 -72 -20 -40 -36 -67 -36 -59 0 8 -3 12 -6 9 -3 -4 -1 -16 5 -27 11 -20 10
-21 -42 -15 -39 4 -57 2 -63 -7 -4 -8 -3 -14 5 -17 20 -7 61 -49 54 -55 -3 -4
-1 -7 5 -7 7 0 12 4 12 9 0 5 9 11 20 14 21 5 28 27 9 27 -5 0 -7 5 -4 10 4 6
13 4 22 -6 13 -13 14 -22 7 -43 -11 -29 -10 -135 2 -165 5 -13 4 -17 -3 -13
-7 4 -13 -6 -15 -26 -3 -17 -9 -41 -13 -51 -6 -13 -5 -17 2 -13 6 4 14 0 17
-9 3 -8 2 -13 -3 -10 -5 3 -8 -5 -7 -19 1 -19 9 -28 33 -36 18 -6 37 -17 41
-25 7 -13 10 -13 21 0 8 9 22 16 34 16 41 0 153 88 144 114 -5 14 -57 8 -77
-9 -27 -23 -79 -45 -93 -39 -29 11 -52 85 -51 162 0 40 4 77 10 80 5 4 11 27
12 52 4 44 38 120 54 120 4 0 8 9 8 19 0 11 7 27 16 36 9 8 13 23 10 31 -4 11
-2 15 8 11 11 -4 13 -1 9 10 -4 11 -2 14 5 9 8 -5 10 -1 5 10 -5 13 -3 16 10
11 8 -3 17 -1 19 5 3 7 15 8 34 3 24 -6 26 -8 10 -14 -15 -6 -11 -9 20 -19 44
-13 69 -30 126 -87 l40 -40 -21 43 c-24 48 -61 89 -104 117 -37 24 -137 47
-137 32 0 -8 -4 -7 -12 1 -16 16 -18 16 -55 -18z"/>
<path d="M8727 774 c-3 -4 2 -14 12 -23 9 -9 28 -43 41 -76 12 -33 28 -73 35
-90 15 -35 40 -128 36 -134 -1 -2 9 -9 23 -16 32 -17 60 -9 96 26 27 27 50 37
50 22 0 -9 -79 -83 -90 -83 -14 0 -80 -127 -74 -144 3 -8 0 -23 -6 -33 -10
-16 -11 -16 -6 0 3 9 2 17 -2 17 -4 0 -8 8 -8 18 -1 9 -5 25 -9 35 -5 12 -3
16 6 12 10 -4 15 6 17 35 2 39 1 40 -28 40 -22 0 -29 4 -24 13 5 9 3 9 -7 -1
-8 -7 -14 -16 -14 -20 0 -4 -11 -28 -24 -54 -22 -43 -23 -48 -7 -63 9 -9 16
-23 16 -31 0 -8 8 -14 18 -15 14 0 14 -2 -3 -9 -13 -6 -15 -9 -5 -9 13 -1 13
-2 0 -11 -12 -8 -12 -10 5 -10 11 0 27 -5 35 -11 12 -8 9 -9 -10 -4 l-25 7 25
-18 c14 -11 28 -18 31 -17 3 1 13 -14 23 -32 19 -34 49 -43 64 -18 12 17 52
25 67 13 12 -10 12 -6 5 22 -14 55 -7 261 9 266 10 3 11 0 5 -9 -7 -12 -5 -12
9 0 9 7 15 17 12 21 -2 4 5 16 18 26 12 10 17 12 10 5 -15 -18 -6 -41 17 -41
28 0 31 13 9 46 -24 36 -24 41 1 49 12 4 20 15 20 27 0 20 -1 20 -18 5 -20
-18 -47 -23 -37 -7 3 6 -3 10 -14 10 -12 0 -21 7 -21 15 0 8 -5 15 -11 15 -5
0 -8 -4 -5 -8 6 -11 -23 -46 -57 -67 l-27 -17 -11 31 c-6 17 -28 67 -50 111
-21 44 -43 99 -50 122 -6 24 -16 49 -21 56 -11 13 -40 16 -51 6z"/>
<path d="M9257 666 c4 -5 -1 -7 -10 -3 -10 3 -17 2 -17 -3 0 -5 -13 -16 -30
-25 -16 -8 -43 -36 -60 -63 -17 -26 -23 -37 -12 -25 11 12 22 19 26 16 3 -3
15 2 26 12 11 10 20 15 20 12 0 -4 9 2 21 14 11 11 24 17 27 13 4 -3 1 -9 -5
-11 -21 -8 -15 -26 7 -20 11 3 18 0 17 -7 -1 -6 7 -11 18 -11 11 0 24 -10 29
-21 6 -12 24 -30 40 -40 28 -16 30 -16 17 -1 -8 10 -9 17 -3 17 6 0 15 -8 21
-17 11 -20 19 -16 24 13 2 10 10 33 19 49 21 39 10 59 -45 85 -45 21 -140 33
-130 16z"/>
<path d="M9452 543 c-30 -44 -62 -110 -62 -131 0 -11 6 -25 14 -32 15 -12 11
-44 -5 -34 -5 3 -5 -4 -1 -16 12 -31 26 -26 33 12 11 66 39 94 67 66 9 -9 15
-8 27 8 8 10 15 27 15 37 0 9 4 17 10 17 11 0 7 67 -6 80 -5 5 -23 11 -41 14
-26 5 -35 2 -51 -21z"/>
<path d="M8117 533 c-4 -3 -7 -27 -8 -52 0 -70 -19 -105 -76 -150 -60 -47 -74
-86 -25 -75 15 4 41 13 59 21 41 16 43 16 43 -2 0 -9 11 -20 25 -25 14 -5 25
-12 25 -15 0 -4 -5 -3 -11 1 -7 4 -10 1 -7 -7 3 -8 14 -13 24 -11 15 2 16 1 5
-7 -8 -5 -21 -6 -30 -3 -13 5 -14 3 -4 -9 7 -9 9 -20 3 -29 -5 -8 -5 -19 1
-26 11 -13 -5 -29 -36 -37 -13 -3 -9 -5 12 -6 17 0 35 4 38 9 4 6 10 8 15 5 9
-6 31 27 29 42 -1 4 -1 25 0 45 1 29 4 36 16 32 8 -4 12 -10 9 -15 -3 -5 0 -9
7 -9 6 0 9 -8 6 -20 -3 -11 0 -20 6 -20 6 0 2 -7 -9 -15 -18 -13 -18 -14 6 -8
22 5 23 4 9 -8 -18 -16 -33 -63 -17 -53 6 4 14 1 18 -6 7 -11 13 -10 34 3 30
20 73 22 79 5 2 -7 3 -5 2 4 -2 10 3 22 10 28 17 14 48 -16 42 -41 -7 -24 18
-25 32 -1 9 14 10 14 11 1 0 -8 -16 -23 -36 -32 -36 -18 -60 -15 -48 5 5 7 1
9 -9 5 -10 -4 -17 0 -20 11 -4 16 -5 15 -6 0 -1 -21 -12 -23 -31 -5 -12 10
-12 9 -1 -6 8 -9 11 -20 8 -23 -3 -4 1 -13 10 -22 14 -14 17 -14 28 1 10 14
14 15 18 4 4 -11 34 -15 133 -16 70 0 124 2 120 6 -4 4 -14 8 -22 8 -7 0 -13
4 -13 9 0 5 -5 13 -13 17 -10 7 -10 9 0 9 6 0 12 4 12 10 0 5 -7 7 -15 4 -9
-4 -15 0 -15 10 0 17 -20 18 -32 1 -5 -6 -8 -3 -8 7 0 12 -5 15 -17 11 -16 -6
-17 -5 -3 12 14 17 14 18 -10 5 -23 -12 -24 -12 -10 5 8 9 14 27 15 39 0 21
21 29 40 15 20 -13 55 -20 55 -10 0 5 -12 11 -27 13 -18 2 -29 10 -32 23 l-3
20 23 -20 c18 -15 20 -15 10 -2 -7 9 -11 17 -7 17 12 0 -23 57 -39 63 -8 4
-15 3 -15 -2 0 -4 -13 -6 -30 -3 -16 2 -28 8 -25 12 3 4 -1 10 -8 12 -14 5
-48 -27 -39 -37 4 -4 7 -11 7 -16 0 -5 5 -8 10 -6 6 1 9 5 8 10 -5 12 45 8 53
-5 11 -17 -45 -53 -78 -49 -15 1 -28 -2 -28 -8 0 -17 -47 -13 -54 5 -9 22 -8
24 12 24 13 0 11 5 -10 24 -33 27 -37 50 -9 41 36 -11 30 12 -7 31 l-37 18 50
6 c34 3 49 9 47 18 -1 8 2 11 8 7 15 -10 29 36 18 65 -7 23 -13 25 -48 22 -22
-2 -48 -1 -58 4 -9 4 -21 6 -25 5 -5 -1 -6 2 -3 7 2 4 1 14 -5 22 -6 11 -9 11
-9 2 0 -7 -16 -22 -35 -34 -20 -11 -42 -35 -49 -52 l-14 -31 -10 26 c-6 14 -8
54 -5 88 6 59 4 68 -10 54z"/>
<path d="M5171 343 c-16 -81 -14 -101 9 -108 12 -4 37 -31 57 -61 20 -30 38
-52 41 -49 3 2 0 10 -5 17 -5 7 -13 22 -17 33 -4 13 5 7 23 -15 16 -19 32 -32
36 -29 9 9 -28 96 -69 164 -20 33 -36 65 -36 71 0 6 -6 17 -14 23 -11 9 -15 0
-25 -46z"/>
<path d="M98 241 c-19 -11 -26 -21 -22 -33 4 -15 -1 -18 -33 -18 l-38 0 -3
-95 -4 -96 194 1 193 2 -25 20 c-16 13 -18 19 -7 15 11 -4 17 -1 17 7 0 8 -5
16 -11 18 -6 2 -11 16 -11 31 0 15 -5 30 -11 34 -7 4 -8 0 -3 -12 6 -16 2 -17
-39 -11 -48 6 -90 28 -78 39 14 14 -49 6 -72 -9 -20 -13 -23 -20 -15 -34 15
-28 12 -57 -7 -64 -9 -4 -20 -1 -25 6 -13 20 -6 131 10 156 8 12 11 22 7 22
-4 0 -2 7 5 15 18 22 9 24 -22 6z"/>
<path d="M6497 223 c-24 -21 -76 -61 -115 -89 -39 -28 -68 -55 -64 -60 4 -4
-2 -2 -12 6 -11 8 -17 10 -13 4 3 -6 -4 -21 -17 -33 l-24 -22 -41 20 c-22 12
-47 21 -56 21 -9 0 -43 28 -76 63 -51 54 -57 58 -47 30 10 -27 9 -37 -7 -66
-18 -35 -18 -35 6 -66 l24 -30 134 0 c140 1 193 11 173 31 -8 8 -15 8 -26 -1
-8 -7 -21 -9 -27 -5 -7 4 -9 3 -6 -2 3 -5 -3 -10 -14 -10 -25 0 -25 1 13 27
17 13 28 18 24 11 -4 -7 -2 -12 3 -12 6 0 11 4 11 8 0 4 14 13 32 20 17 6 29
15 25 18 -4 4 -13 1 -22 -6 -9 -7 -18 -10 -21 -7 -3 3 4 10 15 16 11 6 32 23
46 37 14 14 30 22 36 19 11 -7 56 40 83 87 22 37 16 35 -37 -9z"/>
<path d="M700 235 c0 -8 12 -20 26 -28 23 -12 24 -15 9 -27 -8 -7 -30 -13 -47
-12 -41 1 -52 -6 -37 -24 8 -10 23 -12 51 -7 34 5 40 3 37 -11 -2 -10 -17 -25
-34 -34 -16 -9 -32 -18 -34 -19 -11 -7 25 -33 45 -33 21 0 29 -10 25 -32 -2
-12 12 -10 34 5 11 7 34 13 52 11 23 -1 30 2 26 12 -6 16 13 19 22 3 4 -6 13
-8 20 -5 8 3 25 -4 40 -16 17 -14 34 -18 50 -14 24 6 35 26 15 26 -5 0 -10 -5
-10 -10 0 -6 -6 -5 -14 2 -11 10 -11 16 -2 27 9 12 6 13 -17 7 -16 -4 -43 -1
-63 6 -28 10 -34 17 -34 40 0 19 5 28 16 28 8 0 12 5 9 10 -4 6 -11 8 -16 5
-5 -4 -17 -4 -28 0 -13 4 -17 12 -13 32 5 25 4 26 -34 19 -27 -5 -34 -4 -24 3
12 8 12 13 -4 30 -22 24 -66 28 -66 6z"/>
</g>
</svg>
